<svg xmlns="http://www.w3.org/2000/svg" viewBox="0 0 500 500"><g id="freepik--Shadow--inject-404"><ellipse id="freepik--path--inject-404" cx="250" cy="412.39" rx="193.89" ry="11.32" style="fill:#f5f5f5"></ellipse></g><g id="freepik--City--inject-404"><polygon points="280.39 383.36 231.39 383.36 231.39 146.97 280.39 95.97 280.39 383.36" style="fill:#407BFF"></polygon><polygon points="280.39 383.36 231.39 383.36 231.39 146.97 280.39 95.97 280.39 383.36" style="fill:#fff;opacity:0.8"></polygon><rect x="234.22" y="150.69" width="12.52" height="34.28" style="fill:#fff;opacity:0.5"></rect><rect x="249.8" y="150.69" width="12.52" height="34.28" style="fill:#fff;opacity:0.5"></rect><rect x="265.37" y="150.69" width="12.52" height="34.28" style="fill:#fff;opacity:0.5"></rect><rect x="234.22" y="189.22" width="12.52" height="34.28" style="fill:#fff;opacity:0.5"></rect><rect x="249.8" y="189.22" width="12.52" height="34.28" style="fill:#fff;opacity:0.5"></rect><rect x="265.37" y="189.22" width="12.52" height="34.28" style="fill:#fff;opacity:0.5"></rect><rect x="234.22" y="227.74" width="12.52" height="34.28" style="fill:#fff;opacity:0.5"></rect><rect x="249.8" y="227.74" width="12.52" height="34.28" style="fill:#fff;opacity:0.5"></rect><rect x="265.37" y="227.74" width="12.52" height="34.28" style="fill:#fff;opacity:0.5"></rect><rect x="234.22" y="266.27" width="12.52" height="34.28" style="fill:#fff;opacity:0.5"></rect><rect x="249.8" y="266.27" width="12.52" height="34.28" style="fill:#fff;opacity:0.5"></rect><rect x="265.37" y="266.27" width="12.52" height="34.28" style="fill:#fff;opacity:0.5"></rect><rect x="234.22" y="304.8" width="12.52" height="34.28" style="fill:#fff;opacity:0.5"></rect><rect x="249.8" y="304.8" width="12.52" height="34.28" style="fill:#fff;opacity:0.5"></rect><rect x="265.37" y="304.8" width="12.52" height="34.28" style="fill:#fff;opacity:0.5"></rect><rect x="234.22" y="343.32" width="12.52" height="34.28" style="fill:#fff;opacity:0.5"></rect><rect x="249.8" y="343.32" width="12.52" height="34.28" style="fill:#fff;opacity:0.5"></rect><rect x="265.37" y="343.32" width="12.52" height="34.28" style="fill:#fff;opacity:0.5"></rect><path d="M230.39,142.85h0a3,3,0,0,1,4.24-.09l46.68,44.85a3,3,0,0,1,.08,4.24h0a3,3,0,0,1-4.24.08l-46.67-44.84A3,3,0,0,1,230.39,142.85Z" style="fill:#263238"></path><path d="M234.63,146.06l46.68-44.85a3,3,0,0,0,.08-4.24h0a3,3,0,0,0-4.24-.08l-46.67,44.84a3,3,0,0,0-.09,4.24h0A3,3,0,0,0,234.63,146.06Z" style="fill:#263238"></path><path d="M230.39,238.11h0a3,3,0,0,1,4.24-.09l46.68,44.84a3,3,0,0,1,.08,4.25h0a3,3,0,0,1-4.24.08l-46.67-44.84A3,3,0,0,1,230.39,238.11Z" style="fill:#263238"></path><path d="M234.63,241.32l46.68-44.85a3,3,0,0,0,.08-4.24h0a3,3,0,0,0-4.24-.08L230.48,237a3,3,0,0,0-.09,4.24h0A3,3,0,0,0,234.63,241.32Z" style="fill:#263238"></path><path d="M230.39,333.36h0a3,3,0,0,1,4.24-.08l46.68,44.84a3,3,0,0,1,.08,4.24h0a3,3,0,0,1-4.24.09l-46.67-44.84A3,3,0,0,1,230.39,333.36Z" style="fill:#263238"></path><path d="M234.63,336.57l46.68-44.84a3,3,0,0,0,.08-4.24h0a3,3,0,0,0-4.24-.09l-46.67,44.85a3,3,0,0,0-.09,4.24h0A3,3,0,0,0,234.63,336.57Z" style="fill:#263238"></path><g style="opacity:0.9"><path d="M230.39,142.85h0a3,3,0,0,1,4.24-.09l46.68,44.85a3,3,0,0,1,.08,4.24h0a3,3,0,0,1-4.24.08l-46.67-44.84A3,3,0,0,1,230.39,142.85Z" style="fill:#fff"></path><path d="M234.63,146.06l46.68-44.85a3,3,0,0,0,.08-4.24h0a3,3,0,0,0-4.24-.08l-46.67,44.84a3,3,0,0,0-.09,4.24h0A3,3,0,0,0,234.63,146.06Z" style="fill:#fff"></path><path d="M230.39,238.11h0a3,3,0,0,1,4.24-.09l46.68,44.84a3,3,0,0,1,.08,4.25h0a3,3,0,0,1-4.24.08l-46.67-44.84A3,3,0,0,1,230.39,238.11Z" style="fill:#fff"></path><path d="M234.63,241.32l46.68-44.85a3,3,0,0,0,.08-4.24h0a3,3,0,0,0-4.24-.08L230.48,237a3,3,0,0,0-.09,4.24h0A3,3,0,0,0,234.63,241.32Z" style="fill:#fff"></path><path d="M230.39,333.36h0a3,3,0,0,1,4.24-.08l46.68,44.84a3,3,0,0,1,.08,4.24h0a3,3,0,0,1-4.24.09l-46.67-44.84A3,3,0,0,1,230.39,333.36Z" style="fill:#fff"></path><path d="M234.63,336.57l46.68-44.84a3,3,0,0,0,.08-4.24h0a3,3,0,0,0-4.24-.09l-46.67,44.85a3,3,0,0,0-.09,4.24h0A3,3,0,0,0,234.63,336.57Z" style="fill:#fff"></path></g><rect x="373" y="143" width="47.17" height="240.36" style="fill:#407BFF"></rect><rect x="373" y="143" width="47.17" height="240.36" style="fill:#407BFF"></rect><rect x="373" y="143" width="47.17" height="240.36" style="fill:#fff;opacity:0.6000000000000001"></rect><g style="opacity:0.2"><rect x="382.8" y="143" width="1.5" height="237.95"></rect><rect x="395.84" y="143" width="1.5" height="237.95"></rect><rect x="408.87" y="143" width="1.5" height="237.95"></rect></g><rect x="371.88" y="143" width="49.41" height="4.82" style="fill:#407BFF"></rect><rect x="371.88" y="158.29" width="49.41" height="4.82" style="fill:#407BFF"></rect><rect x="371.88" y="173.57" width="49.41" height="4.82" style="fill:#407BFF"></rect><rect x="371.88" y="188.86" width="49.41" height="4.82" style="fill:#407BFF"></rect><rect x="371.88" y="204.14" width="49.41" height="4.82" style="fill:#407BFF"></rect><rect x="371.88" y="219.42" width="49.41" height="4.82" style="fill:#407BFF"></rect><rect x="371.88" y="234.71" width="49.41" height="4.82" style="fill:#407BFF"></rect><rect x="371.88" y="249.99" width="49.41" height="4.82" style="fill:#407BFF"></rect><rect x="371.88" y="265.28" width="49.41" height="4.82" style="fill:#407BFF"></rect><rect x="371.88" y="280.56" width="49.41" height="4.82" style="fill:#407BFF"></rect><rect x="371.88" y="295.85" width="49.41" height="4.82" style="fill:#407BFF"></rect><rect x="371.88" y="311.13" width="49.41" height="4.82" style="fill:#407BFF"></rect><rect x="371.88" y="326.42" width="49.41" height="4.82" style="fill:#407BFF"></rect><rect x="371.88" y="341.7" width="49.41" height="4.82" style="fill:#407BFF"></rect><rect x="371.88" y="356.98" width="49.41" height="4.82" style="fill:#407BFF"></rect><rect x="371.88" y="372.27" width="49.41" height="4.82" style="fill:#407BFF"></rect><g style="opacity:0.8"><rect x="371.88" y="143" width="49.41" height="4.82" style="fill:#fff"></rect><rect x="371.88" y="158.29" width="49.41" height="4.82" style="fill:#fff"></rect><rect x="371.88" y="173.57" width="49.41" height="4.82" style="fill:#fff"></rect><rect x="371.88" y="188.86" width="49.41" height="4.82" style="fill:#fff"></rect><rect x="371.88" y="204.14" width="49.41" height="4.82" style="fill:#fff"></rect><rect x="371.88" y="219.42" width="49.41" height="4.82" style="fill:#fff"></rect><rect x="371.88" y="234.71" width="49.41" height="4.82" style="fill:#fff"></rect><rect x="371.88" y="249.99" width="49.41" height="4.82" style="fill:#fff"></rect><rect x="371.88" y="265.28" width="49.41" height="4.82" style="fill:#fff"></rect><rect x="371.88" y="280.56" width="49.41" height="4.82" style="fill:#fff"></rect><rect x="371.88" y="295.85" width="49.41" height="4.82" style="fill:#fff"></rect><rect x="371.88" y="311.13" width="49.41" height="4.82" style="fill:#fff"></rect><rect x="371.88" y="326.42" width="49.41" height="4.82" style="fill:#fff"></rect><rect x="371.88" y="341.7" width="49.41" height="4.82" style="fill:#fff"></rect><rect x="371.88" y="356.98" width="49.41" height="4.82" style="fill:#fff"></rect><rect x="371.88" y="372.27" width="49.41" height="4.82" style="fill:#fff"></rect></g><path d="M81.54,277.34c0,23.82,1.82,64.43,4.93,106h48.68c3.12-41.59,4.93-82.2,4.93-106,0-64-29.27-115.81-29.27-115.81S81.54,213.38,81.54,277.34Z" style="fill:#407BFF"></path><path d="M81.54,277.34c0,23.82,1.82,64.43,4.93,106h48.68c3.12-41.59,4.93-82.2,4.93-106,0-64-29.27-115.81-29.27-115.81S81.54,213.38,81.54,277.34Z" style="fill:#fff;opacity:0.8"></path><g style="opacity:0.1"><path d="M133.27,222.05c-.32-1.33-.65-2.65-1-4h-43c-.33,1.31-.66,2.63-1,4Z"></path><path d="M96.17,195.47h29.28q-.7-2-1.41-4H97.59C97.11,192.79,96.64,194.11,96.17,195.47Z"></path><path d="M140.07,275.22c0-1.32,0-2.64-.07-4H81.63c0,1.32-.06,2.64-.08,4Z"></path><path d="M138.19,248.64q-.25-2-.54-4H84c-.19,1.31-.38,2.63-.55,4Z"></path><path d="M137.09,355l.24-4h-53l.24,4Z"></path><path d="M135.28,381.57c.1-1.32.2-2.64.29-4H86.05c.1,1.32.19,2.64.29,4Z"></path><path d="M138.56,328.4c.07-1.33.13-2.66.19-4H82.87c.06,1.3.13,2.63.19,4Z"></path><path d="M139.64,301.81q.06-2,.12-4H81.86q.06,1.95.12,4Z"></path></g><rect x="96.21" y="200.56" width="8.84" height="14.14" style="fill:#407BFF"></rect><rect x="116.65" y="200.56" width="8.84" height="14.14" style="fill:#407BFF"></rect><rect x="96.21" y="220.3" width="8.84" height="14.14" style="fill:#407BFF"></rect><rect x="106.43" y="220.3" width="8.84" height="14.14" style="fill:#407BFF"></rect><rect x="106.43" y="240.03" width="8.84" height="14.14" style="fill:#407BFF"></rect><rect x="116.65" y="240.03" width="8.84" height="14.14" style="fill:#407BFF"></rect><rect x="96.21" y="259.77" width="8.84" height="14.14" style="fill:#407BFF"></rect><rect x="106.43" y="259.77" width="8.84" height="14.14" style="fill:#407BFF"></rect><rect x="116.65" y="259.77" width="8.84" height="14.14" style="fill:#407BFF"></rect><rect x="96.21" y="279.51" width="8.84" height="14.14" style="fill:#407BFF"></rect><rect x="116.65" y="279.51" width="8.84" height="14.14" style="fill:#407BFF"></rect><rect x="116.65" y="299.24" width="8.84" height="14.14" style="fill:#407BFF"></rect><rect x="85.99" y="318.98" width="8.84" height="14.14" style="fill:#407BFF"></rect><rect x="106.43" y="318.98" width="8.84" height="14.14" style="fill:#407BFF"></rect><rect x="126.97" y="318.98" width="8.84" height="14.14" style="fill:#407BFF"></rect><rect x="85.99" y="338.72" width="8.84" height="14.14" style="fill:#407BFF"></rect><rect x="126.97" y="338.72" width="8.84" height="14.14" style="fill:#407BFF"></rect><rect x="96.21" y="358.45" width="8.84" height="14.14" style="fill:#407BFF"></rect><rect x="126.97" y="358.45" width="8.84" height="14.14" style="fill:#407BFF"></rect><g style="opacity:0.9"><rect x="96.21" y="200.56" width="8.84" height="14.14" style="fill:#fff"></rect><rect x="116.65" y="200.56" width="8.84" height="14.14" style="fill:#fff"></rect><rect x="96.21" y="220.3" width="8.84" height="14.14" style="fill:#fff"></rect><rect x="106.43" y="220.3" width="8.84" height="14.14" style="fill:#fff"></rect><rect x="106.43" y="240.03" width="8.84" height="14.14" style="fill:#fff"></rect><rect x="116.65" y="240.03" width="8.84" height="14.14" style="fill:#fff"></rect><rect x="96.21" y="259.77" width="8.84" height="14.14" style="fill:#fff"></rect><rect x="106.43" y="259.77" width="8.84" height="14.14" style="fill:#fff"></rect><rect x="116.65" y="259.77" width="8.84" height="14.14" style="fill:#fff"></rect><rect x="96.21" y="279.51" width="8.84" height="14.14" style="fill:#fff"></rect><rect x="116.65" y="279.51" width="8.84" height="14.14" style="fill:#fff"></rect><rect x="116.65" y="299.24" width="8.84" height="14.14" style="fill:#fff"></rect><rect x="85.99" y="318.98" width="8.84" height="14.14" style="fill:#fff"></rect><rect x="106.43" y="318.98" width="8.84" height="14.14" style="fill:#fff"></rect><rect x="126.97" y="318.98" width="8.84" height="14.14" style="fill:#fff"></rect><rect x="85.99" y="338.72" width="8.84" height="14.14" style="fill:#fff"></rect><rect x="126.97" y="338.72" width="8.84" height="14.14" style="fill:#fff"></rect><rect x="96.21" y="358.45" width="8.84" height="14.14" style="fill:#fff"></rect><rect x="126.97" y="358.45" width="8.84" height="14.14" style="fill:#fff"></rect></g></g><g id="freepik--character-2--inject-404"><polygon points="272.21 355.15 266.81 354.8 264.75 342.1 271.42 342.74 272.21 355.15" style="fill:#b55b52"></polygon><path d="M266.21,354.57l6.38.13a.46.46,0,0,1,.44.37l1,4.69a.76.76,0,0,1-.77.92c-2.05-.08-3.55-.23-6.14-.28-1.59,0-6.39,0-8.59,0s-2.46-2.23-1.56-2.41c4-.8,7.09-2,8.4-3.09A1.21,1.21,0,0,1,266.21,354.57Z" style="fill:#263238"></path><polygon points="271.96 351.25 271.42 342.74 264.75 342.1 266.26 351.39 271.96 351.25" style="opacity:0.2"></polygon><path d="M272.75,347.36s-2.61-26.33,6-29.85c6.88-2.82,26.7,3.32,26.7,3.32s10.7,4.05,14.9,1.42c4.76-3,5.8-9.07,5.54-13.6a30.44,30.44,0,0,1,.4-5.52L308.44,298l-2.18,2.54a5.33,5.33,0,0,1-3.78,1.85c-9.3.45-26.58-.86-34.47,4.36-8.1,5.35-3.65,40.6-3.65,40.6Z" style="fill:#407BFF"></path><g style="opacity:0.2"><path d="M272.75,347.36s-2.61-26.33,6-29.85c6.88-2.82,26.7,3.32,26.7,3.32s10.7,4.05,14.9,1.42c4.76-3,5.8-9.07,5.54-13.6a30.44,30.44,0,0,1,.4-5.52L308.44,298l-2.18,2.54a5.33,5.33,0,0,1-3.78,1.85c-9.3.45-26.58-.86-34.47,4.36-8.1,5.35-3.65,40.6-3.65,40.6Z"></path></g><path d="M264.93,349l7.84-.3a1,1,0,0,0,.93-1l-.11-1.75a1,1,0,0,0-1-.91l-8.31.12a1,1,0,0,0-.91,1.25l.58,1.92A1,1,0,0,0,264.93,349Z" style="fill:#407BFF"></path><g style="opacity:0.2"><path d="M264.93,349l7.84-.3a1,1,0,0,0,.93-1l-.11-1.75a1,1,0,0,0-1-.91l-8.31.12a1,1,0,0,0-.91,1.25l.58,1.92A1,1,0,0,0,264.93,349Z"></path></g><polygon points="252.17 354.51 247.54 351.73 251.52 339.49 257.16 343.11 252.17 354.51" style="fill:#b55b52"></polygon><path d="M247.48,351.44l5.61,3a.47.47,0,0,1,.23.53l-1.27,4.62a.76.76,0,0,1-1.11.46c-1.79-1-3.05-1.83-5.33-3.06-1.4-.76-5.69-2.9-7.63-3.94s-1.16-3.12-.28-2.86c4,1.14,7.2,1.5,8.88,1.09A1.23,1.23,0,0,1,247.48,351.44Z" style="fill:#263238"></path><polygon points="253.55 351.37 257.16 343.11 251.52 339.49 248.66 348.29 253.55 351.37" style="opacity:0.2"></polygon><path d="M256.37,348.74s10.86-27.71,19.44-31.23c6.88-2.82,29.55,3.32,29.55,3.32s10.71,4.05,14.9,1.42c4.77-3,5.8-9.06,5.55-13.59a30.76,30.76,0,0,1,.39-5.52L308.39,298l-2.18,2.54a5.31,5.31,0,0,1-3.79,1.86c-9.29.44-26.58-1.82-34.46,3.4-8.1,5.36-19.78,39.13-19.78,39.13Z" style="fill:#407BFF"></path><path d="M248.29,345.67l6.81,3.9a1,1,0,0,0,1.33-.38l.84-1.54a1,1,0,0,0-.35-1.29l-7.12-4.29a1,1,0,0,0-1.44.57l-.52,1.94A1,1,0,0,0,248.29,345.67Z" style="fill:#407BFF"></path><path d="M307.24,275.53a37.27,37.27,0,0,0,4.47,4c1.72,1.06,2.42,1.61,4.32-5.92,1.72-6.8,3.93-8.59,6.63-8.15,2.13.34,3.86,2.42,2.28,8.11-2.61,9.45-9.11,15-14.57,13.2-4.28-1.44-6.47-8.65-6.47-8.65Z" style="fill:#407BFF"></path><path d="M330.76,255.46c-.45,3.63-.79,8.94,1.89,11.17,0,0,.11,3.67-9.78,8.33-4-5-2-8.25-2-8.25,4-1.24,3.92-2.3,3.38-4.92Z" style="fill:#b55b52"></path><path d="M328.51,260.4a4.87,4.87,0,0,0-.65-2.1l-3.58,3.49a8.12,8.12,0,0,1,.25,2.07C326.06,263.51,328.3,262.06,328.51,260.4Z" style="isolation:isolate;opacity:0.2"></path><path d="M333.82,250.77c-1,5.12-1.36,7.3-4.33,9.58-4.48,3.44-10.54,1-11.06-4.27-.46-4.79,1.32-12.38,6.65-13.7a7.12,7.12,0,0,1,8.74,8.39Z" style="fill:#b55b52"></path><path d="M325.41,251c-.06.42-.33.73-.6.69s-.46-.41-.4-.83.33-.73.6-.69S325.44,250.58,325.41,251Z" style="fill:#263238"></path><path d="M320.66,250.33c-.06.43-.33.73-.6.69s-.45-.41-.4-.83.34-.73.61-.69S320.72,249.91,320.66,250.33Z" style="fill:#263238"></path><path d="M320.39,249.54l-1-.43S319.83,250,320.39,249.54Z" style="fill:#263238"></path><path d="M322,251.29a11.62,11.62,0,0,1-1.87,2.48,1.89,1.89,0,0,0,1.46.49Z" style="fill:#a02724"></path><path d="M323.67,256.22a3.35,3.35,0,0,1-.63-.05.11.11,0,0,1-.11-.13h0a.14.14,0,0,1,.15-.11A3.36,3.36,0,0,0,326,255a.13.13,0,0,1,.18,0,.12.12,0,0,1,0,.17A3.51,3.51,0,0,1,323.67,256.22Z" style="fill:#263238"></path><path d="M327.45,250.29a.24.24,0,0,1-.24-.17,3,3,0,0,0-1.81-1.52.24.24,0,0,1-.17-.31.25.25,0,0,1,.3-.17h0a3.36,3.36,0,0,1,2.14,1.84.25.25,0,0,1-.15.31h-.08Z" style="fill:#263238"></path><path d="M319.54,247.94a.25.25,0,0,1-.14-.46,2.45,2.45,0,0,1,2.29-.22.24.24,0,0,1,.13.31v0a.25.25,0,0,1-.33.12h0a2,2,0,0,0-1.79.19A.28.28,0,0,1,319.54,247.94Z" style="fill:#263238"></path><path d="M325.13,250.23l-1-.43S324.57,250.63,325.13,250.23Z" style="fill:#263238"></path><path d="M307,299.09l19.62,4.38s2.47-13,6.67-18.92,2.32-17.75-1.93-20.78c-1.92-1.38-6.56-.4-9.35,1.5-3,2-7.36,6.47-8.16,11S310.44,294.49,307,299.09Z" style="fill:#407BFF"></path><path d="M307,299.09l19.62,4.38s2.47-13,6.67-18.92,2.32-17.75-1.93-20.78c-1.92-1.38-6.56-.4-9.35,1.5-3,2-7.36,6.47-8.16,11S310.44,294.49,307,299.09Z" style="fill:#fff;opacity:0.7000000000000001"></path><path d="M324,265.44a.87.87,0,0,1-.94-.79c-.05-.5-.13-1.13-.23-1.61a.66.66,0,0,1,.69-.78,25.91,25.91,0,0,0,6.79-.8,1.13,1.13,0,0,1,1.37,1,7.74,7.74,0,0,0,.14,1.32.87.87,0,0,1-.76,1.11Z" style="fill:#407BFF"></path><path d="M331.59,253.71s-1.89-.35-.86-2.51a2.7,2.7,0,0,1-.71-3.78,2.82,2.82,0,0,1-2.73-2.37,2.93,2.93,0,0,1-3.77-.48s-3.39,1.85-4.1-.56c0,0-4-1.86-.23-3.74,0,0,.42-5.78,5.53-2.51,0,0,3.36-3.48,6.43.8,0,0,3.5-.89,3.89,3.21,0,0,3.54.36,2.92,5.32,0,0,2.53,2.14-.61,4.41a2.88,2.88,0,0,1-1.59,2.67s-.74,1.89-2.14,2c0,0-1.48,2.53-2.15,2.14S332.17,255.11,331.59,253.71Z" style="fill:#263238"></path><path d="M322.06,251.05l-1,1.4a16.59,16.59,0,0,1-2.73-.86l.51-3.38c7.33-.58,13.46,4.33,13.46,4.33l-.73,1.17a56,56,0,0,1-9.26-1Z" style="fill:#407BFF"></path><polygon points="330.68 257.63 331.53 257.69 331.18 256.27 332.41 258.66 331.54 258.47 331.98 260.5 330.68 257.63" style="fill:#407BFF"></polygon><g style="opacity:0.6000000000000001"><path d="M325.73,253.27l-1.4-4.55.62.16,1.37,4.46Z" style="fill:#fff"></path><path d="M321.74,248.26a15.81,15.81,0,0,1,1.74.27l1.43,4.63-1.75-.27Z" style="fill:#fff"></path><path d="M319.6,252l-.88-2.88.14-.95H319l1.23,4Z" style="fill:#fff"></path></g><path d="M333.87,254.72a3.75,3.75,0,0,1-2.17,1.85c-1.26.39-1.93-.73-1.61-1.94s1.29-2.6,2.57-2.48a1.67,1.67,0,0,1,1.46,1.88A1.6,1.6,0,0,1,333.87,254.72Z" style="fill:#b55b52"></path><path d="M301.24,272.77l-.19,1.5a1.76,1.76,0,0,0,.56,1.51l1.94,1.79a3.27,3.27,0,0,0,2.9.79h0a.93.93,0,0,0,.73-.85,12.1,12.1,0,0,0-.9-4.75l-.28-.9a1.45,1.45,0,0,0-1.8-1l-1.79.52A1.67,1.67,0,0,0,301.24,272.77Z" style="fill:#b55b52"></path><path d="M305.13,276.17l1.44-.28a.68.68,0,0,0,.5-.92l-3-7.77a1.19,1.19,0,0,0-1.33-.73l-1.44.27a.68.68,0,0,0-.5.92l3,7.77A1.18,1.18,0,0,0,305.13,276.17Z" style="fill:#407BFF"></path><path d="M305.43,276.11l1.43-.27a.68.68,0,0,0,.51-.92l-3-7.78a1.19,1.19,0,0,0-1.33-.73l-1.44.27a.69.69,0,0,0-.51.92l3,7.78A1.18,1.18,0,0,0,305.43,276.11Z" style="fill:#407BFF"></path><path d="M305.43,276.11l1.43-.27a.68.68,0,0,0,.51-.92l-3-7.78a1.19,1.19,0,0,0-1.33-.73l-1.44.27a.69.69,0,0,0-.51.92l3,7.78A1.18,1.18,0,0,0,305.43,276.11Z" style="fill:#fff;opacity:0.4"></path><path d="M301.57,266.68l1.44-.27a1.19,1.19,0,0,1,1.33.73l3,7.78a.65.65,0,0,1-.12.67l-6-8.71A.69.69,0,0,1,301.57,266.68Z" style="fill:#fff;opacity:0.30000000000000004"></path><rect x="342.92" y="262.96" width="2.19" height="7.02" style="fill:#263238"></rect><rect x="342.92" y="262.96" width="2.19" height="7.02" style="fill:#fff;opacity:0.5"></rect><path d="M339.17,330.31a3.1,3.1,0,0,1-5.06,1.16c-2.22-2.17-4.85-4.94-5.65-6.68-1.91-4.12-1-13.65-.43-18.16,1.28-10.15,2.73-33.44,11-39.42,1.3-.94,4.49-.81,7-.52a3.84,3.84,0,0,1,3.41,3.82C349.49,279.26,348.62,304.21,339.17,330.31Z" style="fill:#407BFF"></path><path d="M339.17,330.31a3.1,3.1,0,0,1-5.06,1.16c-2.22-2.17-4.85-4.94-5.65-6.68-1.91-4.12-1-13.65-.43-18.16,1.28-10.15,2.73-33.44,11-39.42,1.3-.94,4.49-.81,7-.52a3.84,3.84,0,0,1,3.41,3.82C349.49,279.26,348.62,304.21,339.17,330.31Z" style="opacity:0.4"></path><rect x="279.22" y="340.94" width="54.35" height="3.8" style="fill:#263238"></rect><path d="M332.77,342.8l-53.86-.91a2.75,2.75,0,0,1-2.34-2.26c-.54-3.72-1.41-17.2.33-19.39,2.48-3.15,11.93-4,16.23-3.63,10.21.79,33.36,6,39.64,14.71C334.56,333.8,332.77,342.8,332.77,342.8Z" style="fill:#407BFF"></path><path d="M332.77,342.8l-53.86-.91a2.75,2.75,0,0,1-2.34-2.26c-.54-3.72-1.41-17.2.33-19.39,2.48-3.15,11.93-4,16.23-3.63,10.21.79,33.36,6,39.64,14.71C334.56,333.8,332.77,342.8,332.77,342.8Z" style="opacity:0.4"></path><path d="M278.91,341.89l53.86.91s1.12-5.62.7-9.2c-7.8-7.48-30.17-12-40.31-12.68-4.49-.32-14.37.46-17,3.42a1.69,1.69,0,0,0-.24.37,96,96,0,0,0,.61,14.92A2.75,2.75,0,0,0,278.91,341.89Z" style="opacity:0.30000000000000004"></path><path d="M281.35,357.88,278.62,345a1.39,1.39,0,0,1,1.37-1.68h40.43l-3.68,14.6Z" style="fill:#263238"></path><path d="M281.35,357.88,278.62,345a1.39,1.39,0,0,1,1.37-1.68h40.43l-3.68,14.6Z" style="fill:#fff;opacity:0.4"></path><path d="M339.17,330.31c9.45-26.1,10.32-51.05,10.29-59.8a3.82,3.82,0,0,0-2.24-3.48,5.9,5.9,0,0,0-3,.73c-8.59,6.2-10.1,30.3-11.41,40.81-.59,4.67-1.54,14.53.44,18.8a22.43,22.43,0,0,0,3.81,4.85A3,3,0,0,0,339.17,330.31Z" style="opacity:0.30000000000000004"></path><path d="M349.4,251.64a6.22,6.22,0,0,0-6.48-6.23,6.42,6.42,0,0,0-6.24,6.48c0,2.26-.23,6.77-.24,9s2.74,4,6,3.92,5.75-1.92,5.86-4.15S349.28,253.92,349.4,251.64Z" style="fill:#407BFF"></path><path d="M349.4,251.64a6.22,6.22,0,0,0-6.48-6.23,6.42,6.42,0,0,0-6.24,6.48c0,2.26-.23,6.77-.24,9s2.74,4,6,3.92,5.75-1.92,5.86-4.15S349.28,253.92,349.4,251.64Z" style="opacity:0.4"></path><path d="M344.65,247.17c-3.1.06-5.48,3.05-5.48,6.67,0,2.34-.18,7-.18,9.33a3.21,3.21,0,0,0,.19,1.07,8,8,0,0,0,3.28.6c3.28-.06,5.75-1.92,5.86-4.15s1-6.77,1.08-9.05a4,4,0,0,0-4.75-4.47Z" style="opacity:0.30000000000000004"></path><path d="M279.33,360h0a3.29,3.29,0,0,1,2.24-4l5.26-1.56a3.34,3.34,0,0,1,.94-.14h26.71L319,340a3.27,3.27,0,0,1,1.56-1.9l9.26-5a3.25,3.25,0,0,1,3.14,0l5.2,2.82L331.82,360Z" style="fill:#263238"></path><path d="M279.33,360h0a3.29,3.29,0,0,1,2.24-4l5.26-1.56a3.34,3.34,0,0,1,.94-.14h26.71L319,340a3.27,3.27,0,0,1,1.56-1.9l9.26-5a3.25,3.25,0,0,1,3.14,0l5.2,2.82L331.82,360Z" style="fill:#fff;opacity:0.6000000000000001"></path><path d="M336.81,310.73l-21.24-3.27a3.31,3.31,0,0,1-2.8-3.56h0a3.33,3.33,0,0,1,3.59-3l21.37,1.86a3.32,3.32,0,0,1,3,3.59l-.13,1.41A3.32,3.32,0,0,1,336.81,310.73Z" style="fill:#407BFF"></path><path d="M336.81,310.73l-21.24-3.27a3.31,3.31,0,0,1-2.8-3.56h0a3.33,3.33,0,0,1,3.59-3l21.37,1.86a3.32,3.32,0,0,1,3,3.59l-.13,1.41A3.32,3.32,0,0,1,336.81,310.73Z" style="opacity:0.30000000000000004"></path><circle cx="336.55" cy="306.94" r="1.65" style="fill:#263238"></circle><path d="M325.83,325.47a7.75,7.75,0,0,1,2.28,5.5v3l1.67-.91a3,3,0,0,1,.7-.28V331a10.15,10.15,0,0,0-3-7.18l-1.8-1.8a1.19,1.19,0,0,0-1.68,1.68Z" style="fill:#407BFF"></path><rect x="321.34" y="318.6" width="5.38" height="6.78" rx="1.75" transform="translate(-132.77 323.44) rotate(-45)" style="fill:#263238"></rect><path d="M309.85,299.49l.79-1.28a1.77,1.77,0,0,1,1.38-.83l2.64-.17a3.27,3.27,0,0,1,2.75,1.2l.41.51a11.14,11.14,0,0,1-4.06,3.74l-.78.53a1.47,1.47,0,0,1-2.05-.34l-1.06-1.53A1.66,1.66,0,0,1,309.85,299.49Z" style="fill:#b55b52"></path><path d="M327.07,289.62c1.69-3.37,1.18-6.22,1-14-.12-7,.6-9.32,3.31-9.61,2.14-.22,4.36,1.33,4.33,7.23,0,9.81.65,16.18-2.64,21.09-2.34,3.48-16.65,7.06-16.65,7.06l-1.65-5.48S325.13,293.49,327.07,289.62Z" style="fill:#407BFF"></path><polygon points="321.29 321.51 302.42 302.41 306.21 300.55 324.03 319.84 321.29 321.51" style="fill:#263238"></polygon></g><g id="freepik--character-1--inject-404"><polygon points="162.31 357.34 157.49 355.33 159.6 343.08 165.49 345.76 162.31 357.34" style="fill:#ffc3bd"></polygon><path d="M157.2,354.59l5.66,2.44a.44.44,0,0,1,.26.49l-.82,4.56a.73.73,0,0,1-1,.54c-1.81-.82-3.1-1.5-5.39-2.49-1.41-.61-5.73-2.29-7.68-3.13s-1.39-2.89-.52-2.72c3.91.75,7.06.82,8.63.28A1.21,1.21,0,0,1,157.2,354.59Z" style="fill:#263238"></path><polygon points="163.18 354.15 165.49 345.76 159.6 343.08 158.09 351.88 163.18 354.15" style="opacity:0.2"></polygon><path d="M210.44,299.32s-2.81,4.81-4.67,5.36c-8.66,2.55-31.45-5.82-36.8,4.13-4,7.47-11.2,32.34-11.57,38.87a2.33,2.33,0,0,0,1.83,2.32l3.6.88a2.12,2.12,0,0,0,2.63-1.44c1.61-6.41,10.79-29.22,14.13-31.3,2.38-1.49,20.92,2.32,27.65,4.23,3.48,1,10.45,3.59,14.42.93,4.51-3,5.33-8.91,5-13.28a45,45,0,0,1,.22-6.27Z" style="fill:#407BFF"></path><g style="opacity:0.2"><path d="M210.44,299.32s-2.81,4.81-4.67,5.36c-8.66,2.55-31.45-5.82-36.8,4.13-4,7.47-11.2,32.34-11.57,38.87a2.33,2.33,0,0,0,1.83,2.32l3.6.88a2.12,2.12,0,0,0,2.63-1.44c1.61-6.41,10.79-29.22,14.13-31.3,2.38-1.49,20.92,2.32,27.65,4.23,3.48,1,10.45,3.59,14.42.93,4.51-3,5.33-8.91,5-13.28a45,45,0,0,1,.22-6.27Z"></path></g><path d="M157,350.56l7.36,1.77a.94.94,0,0,0,1.13-.71l.37-1.65a.93.93,0,0,0-.68-1.1l-7.76-2.06a.93.93,0,0,0-1.17.92l0,1.94A.94.94,0,0,0,157,350.56Z" style="fill:#407BFF"></path><g style="opacity:0.2"><path d="M157,350.56l7.36,1.77a.94.94,0,0,0,1.13-.71l.37-1.65a.93.93,0,0,0-.68-1.1l-7.76-2.06a.93.93,0,0,0-1.17.92l0,1.94A.94.94,0,0,0,157,350.56Z"></path></g><path d="M194.3,281.59l1.45.12a1.67,1.67,0,0,1,1.32.81l1.32,2.19a3.18,3.18,0,0,1,.18,2.89l-.25.58a10.67,10.67,0,0,1-5-1.83l-.8-.43a1.41,1.41,0,0,1-.61-1.91l.83-1.59A1.64,1.64,0,0,1,194.3,281.59Z" style="fill:#ffc3bd"></path><path d="M198,285s8.31,2.21,14.79,1l1.39,5.18a57.55,57.55,0,0,1-17.46-3.31Z" style="fill:#ffc3bd"></path><path d="M212.09,285.82c2.49-.69,3.81-2.67,5-10.07,1.07-6.69,3-8.6,5.68-8.41,2.07.14,3.91,2,2.89,7.6-1.7,9.31-5.5,16.89-12.46,16.86-3,0-8.77-1.24-11.33-1.82a1.26,1.26,0,0,1-.93-1.57l.58-2.1a1.24,1.24,0,0,1,1.38-.91C205.15,285.7,210.3,286.31,212.09,285.82Z" style="fill:#407BFF"></path><g style="opacity:0.1"><path d="M212.09,285.82c2.49-.69,3.81-2.67,5-10.07,1.07-6.69,3-8.6,5.68-8.41,2.07.14,3.91,2,2.89,7.6-1.7,9.31-5.5,16.89-12.46,16.86-3,0-8.77-1.24-11.33-1.82a1.26,1.26,0,0,1-.93-1.57l.58-2.1a1.24,1.24,0,0,1,1.38-.91C205.15,285.7,210.3,286.31,212.09,285.82Z" style="fill:#fff"></path></g><path d="M211.37,285.94a20.67,20.67,0,0,1-.61,5.68,20.94,20.94,0,0,0,2.43.18,8.85,8.85,0,0,0,2-.24l1.46-4.75-.9-3.29-.56-.46a4.63,4.63,0,0,1-3.11,2.76A5.67,5.67,0,0,1,211.37,285.94Z" style="opacity:0.2"></path><polygon points="170.8 357.11 165.74 355.82 166.05 343.4 172.26 345.19 170.8 357.11" style="fill:#ffc3bd"></polygon><path d="M165.34,355.14l6,1.59a.45.45,0,0,1,.33.44l-.15,4.63a.73.73,0,0,1-.94.68c-1.9-.54-3.27-1-5.69-1.67-1.48-.4-6-1.43-8-2s-1.8-2.66-.91-2.62c4,.18,7.1-.21,8.58-1A1.2,1.2,0,0,1,165.34,355.14Z" style="fill:#263238"></path><polygon points="171.2 353.83 172.26 345.19 166.05 343.4 165.83 352.33 171.2 353.83" style="opacity:0.2"></polygon><path d="M212.22,300.27s-1.6,2.66-2,3.46c-.67,1.25-2.19,2.74-3.6,2.85-9,.7-31.44-5.82-36.79,4.13-4,7.47-4.56,30.44-4.93,37A2.34,2.34,0,0,0,166.7,350l3.61.88a2.1,2.1,0,0,0,2.62-1.44c1.62-6.41,4.15-28.27,7.48-30.35,2.38-1.49,16.63,1.67,27.66,3.28,7.36,1.07,10.45,3.59,14.42.93,4.51-3,5.33-8.91,4.95-13.28a43.41,43.41,0,0,1,.22-6.27Z" style="fill:#407BFF"></path><path d="M231.45,258.07c-.41,3.51-.69,8.64,1.91,10.76,0,0,.14,3.55-9.37,8.13-3.93-4.8-2-7.95-2-7.95,3.81-1.23,3.77-2.25,3.23-4.77Z" style="fill:#ffc3bd"></path><path d="M229.31,262.86a4.7,4.7,0,0,0-.64-2l-3.42,3.41a7.47,7.47,0,0,1,.25,2C227,265.87,229.12,264.46,229.31,262.86Z" style="isolation:isolate;opacity:0.2"></path><path d="M234.36,253.52c-1,5-1.25,7-4.1,9.28-4.29,3.36-10.16,1.1-10.71-4-.48-4.62,1.16-12,6.31-13.28a6.87,6.87,0,0,1,8.41,4.86A6.8,6.8,0,0,1,234.36,253.52Z" style="fill:#ffc3bd"></path><path d="M226.24,253.79c-.05.4-.31.7-.57.67s-.44-.39-.39-.8.31-.71.57-.67S226.27,253.4,226.24,253.79Z" style="fill:#263238"></path><path d="M221.66,253.2c-.06.41-.32.71-.58.67s-.44-.39-.39-.8.32-.7.58-.66S221.71,252.79,221.66,253.2Z" style="fill:#263238"></path><path d="M221.38,252.44l-.94-.41S220.84,252.86,221.38,252.44Z" style="fill:#263238"></path><path d="M223,254.12a11.12,11.12,0,0,1-1.79,2.4,1.77,1.77,0,0,0,1.41.46Z" style="fill:#ff847f"></path><path d="M224.6,258.86a4,4,0,0,1-.6,0,.12.12,0,0,1-.11-.13h0a.13.13,0,0,1,.14-.1,3.28,3.28,0,0,0,2.79-.92.12.12,0,0,1,.18.16A3.39,3.39,0,0,1,224.6,258.86Z" style="fill:#263238"></path><path d="M228.21,253.1a.24.24,0,0,1-.24-.16,2.8,2.8,0,0,0-1.75-1.44.24.24,0,0,1-.17-.3.24.24,0,0,1,.29-.17h0a3.32,3.32,0,0,1,2.08,1.76.24.24,0,0,1-.15.3h0A.09.09,0,0,1,228.21,253.1Z" style="fill:#263238"></path><path d="M220.56,250.9a.24.24,0,0,1-.22-.11.23.23,0,0,1,.08-.33,2.33,2.33,0,0,1,2.2-.23.23.23,0,0,1,.13.3v0a.24.24,0,0,1-.32.11h0a1.93,1.93,0,0,0-1.73.2A.17.17,0,0,1,220.56,250.9Z" style="fill:#263238"></path><path d="M226,253.07l-.94-.41S225.43,253.46,226,253.07Z" style="fill:#263238"></path><path d="M208.84,300.38l19,4.07s2.27-12.57,6.28-18.32,2.09-17.16-2-20.05c-1.87-1.31-6.34-.33-9,1.53-2.86,2-7,6.31-7.78,10.67S212.15,295.92,208.84,300.38Z" style="fill:#407BFF"></path><path d="M208.84,300.38l19,4.07s2.27-12.57,6.28-18.32,2.09-17.16-2-20.05c-1.87-1.31-6.34-.33-9,1.53-2.86,2-7,6.31-7.78,10.67S212.15,295.92,208.84,300.38Z" style="fill:#fff;opacity:0.30000000000000004"></path><path d="M165.14,350.93l7.49,1.05a.93.93,0,0,0,1.06-.81l.2-1.68a.93.93,0,0,0-.78-1l-7.92-1.3a.94.94,0,0,0-1.08,1l.23,1.92A.94.94,0,0,0,165.14,350.93Z" style="fill:#407BFF"></path><path d="M223.89,267.51a6.5,6.5,0,0,0,0-2.06.64.64,0,0,1,.65-.76,26.57,26.57,0,0,0,7.84-1.16,8.28,8.28,0,0,0,1,4.32Z" style="fill:#407BFF"></path><path d="M223.89,267.51a6.5,6.5,0,0,0,0-2.06.64.64,0,0,1,.65-.76,26.57,26.57,0,0,0,7.84-1.16,8.28,8.28,0,0,0,1,4.32Z" style="fill:#fff;opacity:0.30000000000000004"></path><path d="M231.8,256.46a6.49,6.49,0,0,1-.45-3.48c.22-2.19-2.6-3.86-3.94-3.7-1,.11-5.77,3.79-3.89-.45,0,0-6.26,2.19-2.22-1.4,0,0-5.31-.1-.12-2.17,0,0-5-2.45,5.07-1.78,2.81.19,9-1.72,10.05,5.07,0,0,3.33,1.5-.7,8.44-.58,1-2.24,5.36-2.69,3.79C232.91,260.78,231.42,263.76,231.8,256.46Z" style="fill:#263238"></path><path d="M234.44,257.33a3.59,3.59,0,0,1-2.08,1.8c-1.21.39-1.86-.68-1.57-1.86s1.23-2.52,2.46-2.42a1.64,1.64,0,0,1,1.43,1.81A1.69,1.69,0,0,1,234.44,257.33Z" style="fill:#ffc3bd"></path><path d="M224.6,266.78s1.68.35,5.65-.55C230.25,266.23,223.37,269.75,224.6,266.78Z" style="opacity:0.2"></path><path d="M223.07,296.73l-11.25,1.46v.53a1.41,1.41,0,0,0,1.4,1.43l.91,0a11.65,11.65,0,0,0,4.57-.34c1.22-.18,2.39-.39,3.5-.63a1.25,1.25,0,0,0,1.2.35c1.38-.35,3.68-.95,5.93-1.64.49-1.81,1.1-3.8,1.81-5.72Z" style="opacity:0.2"></path><path d="M228.76,278.72s3.87,10.21-2.2,13.22L228,293l3-2.64.72-4.78-.37-5.26L228.74,277Z" style="opacity:0.2"></path><rect x="242.13" y="265.26" width="2.19" height="7.02" style="fill:#263238"></rect><rect x="242.13" y="265.26" width="2.19" height="7.02" style="fill:#fff;opacity:0.5"></rect><path d="M238.38,332.61a3.1,3.1,0,0,1-5.06,1.16c-2.22-2.16-4.85-4.94-5.65-6.68-1.9-4.12-1-13.65-.42-18.16,1.27-10.15,2.72-33.44,11-39.42,1.3-.94,4.49-.81,7-.52a3.85,3.85,0,0,1,3.41,3.82C248.7,281.56,247.83,306.51,238.38,332.61Z" style="fill:#407BFF"></path><path d="M238.38,332.61a3.1,3.1,0,0,1-5.06,1.16c-2.22-2.16-4.85-4.94-5.65-6.68-1.9-4.12-1-13.65-.42-18.16,1.27-10.15,2.72-33.44,11-39.42,1.3-.94,4.49-.81,7-.52a3.85,3.85,0,0,1,3.41,3.82C248.7,281.56,247.83,306.51,238.38,332.61Z" style="opacity:0.4"></path><rect x="178.43" y="343.24" width="54.35" height="3.8" style="fill:#263238"></rect><path d="M232,345.1l-53.86-.91a2.74,2.74,0,0,1-2.34-2.26c-.54-3.72-1.41-17.19.33-19.39,2.48-3.14,11.93-4,16.23-3.63,10.21.79,33.36,6,39.64,14.71C233.77,336.11,232,345.1,232,345.1Z" style="fill:#407BFF"></path><path d="M232,345.1l-53.86-.91a2.74,2.74,0,0,1-2.34-2.26c-.54-3.72-1.41-17.19.33-19.39,2.48-3.14,11.93-4,16.23-3.63,10.21.79,33.36,6,39.64,14.71C233.77,336.11,232,345.1,232,345.1Z" style="opacity:0.4"></path><path d="M178.12,344.19l53.86.91s1.12-5.62.7-9.2c-7.8-7.48-30.17-12-40.31-12.68-4.49-.31-14.36.46-17,3.42a1.69,1.69,0,0,0-.24.37,95.93,95.93,0,0,0,.61,14.92A2.74,2.74,0,0,0,178.12,344.19Z" style="opacity:0.30000000000000004"></path><path d="M180.56,360.18l-2.73-12.92a1.4,1.4,0,0,1,1.37-1.68h40.43L216,360.18Z" style="fill:#263238"></path><path d="M180.56,360.18l-2.73-12.92a1.4,1.4,0,0,1,1.37-1.68h40.43L216,360.18Z" style="fill:#fff;opacity:0.4"></path><path d="M238.38,332.61c9.45-26.1,10.32-51.05,10.29-59.8a3.82,3.82,0,0,0-2.24-3.48,6,6,0,0,0-3,.73c-8.59,6.2-10.1,30.3-11.41,40.82-.59,4.66-1.54,14.52.44,18.79a22.43,22.43,0,0,0,3.81,4.85A3,3,0,0,0,238.38,332.61Z" style="opacity:0.30000000000000004"></path><path d="M248.61,254a6.22,6.22,0,0,0-6.48-6.24,6.42,6.42,0,0,0-6.24,6.48c0,2.26-.23,6.77-.24,9s2.74,4,6,3.93,5.75-1.93,5.86-4.16S248.49,256.22,248.61,254Z" style="fill:#407BFF"></path><path d="M248.61,254a6.22,6.22,0,0,0-6.48-6.24,6.42,6.42,0,0,0-6.24,6.48c0,2.26-.23,6.77-.24,9s2.74,4,6,3.93,5.75-1.93,5.86-4.16S248.49,256.22,248.61,254Z" style="opacity:0.4"></path><path d="M243.86,249.47c-3.1.06-5.48,3.05-5.48,6.68,0,2.33-.18,7-.18,9.32a3.21,3.21,0,0,0,.19,1.07,8.16,8.16,0,0,0,3.28.61c3.28-.07,5.75-1.93,5.86-4.16s1-6.77,1.08-9a5.59,5.59,0,0,0-.38-2.28A5.5,5.5,0,0,0,243.86,249.47Z" style="opacity:0.30000000000000004"></path><path d="M178.54,362.32h0a3.29,3.29,0,0,1,2.24-4l5.26-1.56a3.34,3.34,0,0,1,.94-.14h26.71l4.48-14.29a3.27,3.27,0,0,1,1.56-1.9l9.26-5a3.3,3.3,0,0,1,3.14,0l5.2,2.83-6.3,24.1Z" style="fill:#263238"></path><path d="M178.54,362.32h0a3.29,3.29,0,0,1,2.24-4l5.26-1.56a3.34,3.34,0,0,1,.94-.14h26.71l4.48-14.29a3.27,3.27,0,0,1,1.56-1.9l9.26-5a3.3,3.3,0,0,1,3.14,0l5.2,2.83-6.3,24.1Z" style="fill:#fff;opacity:0.6000000000000001"></path><path d="M235,312.31l-20.32-7a3.32,3.32,0,0,1-2.13-4h0a3.33,3.33,0,0,1,4.08-2.33l20.69,5.63a3.33,3.33,0,0,1,2.33,4.08l-.37,1.36A3.31,3.31,0,0,1,235,312.31Z" style="fill:#407BFF"></path><path d="M235,312.31l-20.32-7a3.32,3.32,0,0,1-2.13-4h0a3.33,3.33,0,0,1,4.08-2.33l20.69,5.63a3.33,3.33,0,0,1,2.33,4.08l-.37,1.36A3.31,3.31,0,0,1,235,312.31Z" style="opacity:0.30000000000000004"></path><path d="M237,308.83a1.65,1.65,0,1,1-1.33-1.92A1.66,1.66,0,0,1,237,308.83Z" style="fill:#263238"></path><path d="M225,327.77a7.76,7.76,0,0,1,2.28,5.5v3l1.67-.91a3.53,3.53,0,0,1,.7-.28v-1.84a10.17,10.17,0,0,0-3-7.18l-1.8-1.8a1.19,1.19,0,1,0-1.68,1.68Z" style="fill:#407BFF"></path><rect x="220.55" y="320.9" width="5.38" height="6.78" rx="1.75" transform="translate(-163.92 252.86) rotate(-45)" style="fill:#263238"></rect><polygon points="220.35 323.81 203 304.86 206.79 303.69 223.09 322.14 220.35 323.81" style="fill:#263238"></polygon><path d="M211.84,294l1.36-.53a1.68,1.68,0,0,1,1.54.16l2.14,1.39a3.15,3.15,0,0,1,1.43,2.52l0,.63a10.66,10.66,0,0,1-5.31.54l-.91,0a1.4,1.4,0,0,1-1.38-1.45l0-1.79A1.64,1.64,0,0,1,211.84,294Z" style="fill:#ffc3bd"></path><path d="M216.64,295.42s8.45-1.64,13.76-5.53l3.52,4.05a57.56,57.56,0,0,1-17.16,4.65Z" style="fill:#ffc3bd"></path><path d="M229.69,290.06c1.95-1.71,2.27-4.06.1-11.24-2-6.49-1-9.07,1.44-10.05,1.92-.77,4.39.09,5.92,5.58,2.53,9.12,2.42,17.59-3.86,20.61-2.71,1.3-8.43,2.71-11,3.3a1.25,1.25,0,0,1-1.52-1l-.39-2.14a1.27,1.27,0,0,1,.84-1.43C223.4,293,228.3,291.28,229.69,290.06Z" style="fill:#407BFF"></path><g style="opacity:0.30000000000000004"><path d="M229.69,290.06c1.95-1.71,2.27-4.06.1-11.24-2-6.49-1-9.07,1.44-10.05,1.92-.77,4.39.09,5.92,5.58,2.53,9.12,2.42,17.59-3.86,20.61-2.71,1.3-8.43,2.71-11,3.3a1.25,1.25,0,0,1-1.52-1l-.39-2.14a1.27,1.27,0,0,1,.84-1.43C223.4,293,228.3,291.28,229.69,290.06Z" style="fill:#fff"></path></g><path d="M192.65,292.84l4.62-.88c1.35-.25,2.23-1.18,1.83-1.92l-7.76-14.52c-.53-1-2.23-1.47-4-1.13l-4.62.88c-1.35.26-2.23,1.19-1.84,1.93l7.77,14.52C189.14,292.72,190.84,293.19,192.65,292.84Z" style="fill:#407BFF"></path><path d="M192.55,292.31l4.42-.84c1.29-.24,2.13-1.14,1.75-1.86l-7.46-14.06c-.51-1-2.13-1.42-3.86-1.09l-4.42.84c-1.29.24-2.13,1.14-1.75,1.86l7.45,14.06C189.2,292.18,190.82,292.64,192.55,292.31Z" style="fill:#407BFF"></path><path d="M192.55,292.31l4.42-.84c1.29-.24,2.13-1.14,1.75-1.86l-7.46-14.06c-.51-1-2.13-1.42-3.86-1.09l-4.42.84c-1.29.24-2.13,1.14-1.75,1.86l7.45,14.06C189.2,292.18,190.82,292.64,192.55,292.31Z" style="fill:#fff;opacity:0.4"></path><path d="M183,275.3l4.42-.84c1.73-.33,3.35.13,3.86,1.09l7.46,14.06c.23.44,0,.92-.51,1.3l-16.32-15.16A3,3,0,0,1,183,275.3Z" style="fill:#fff;opacity:0.30000000000000004"></path></g><g id="freepik--Car--inject-404"><polygon points="169.39 290.82 157.44 293.77 157.44 289.38 168.65 287.91 169.39 290.82" style="fill:#263238"></polygon><polygon points="167.56 291.99 149.49 296.45 149.49 289.82 166.45 287.59 167.56 291.99" style="fill:#407BFF"></polygon><path d="M170.55,298.92,165.76,280a1.4,1.4,0,0,1,1-1.7h0a1.4,1.4,0,0,1,1.69,1l4.79,18.93a1.39,1.39,0,0,1-1,1.69h0A1.39,1.39,0,0,1,170.55,298.92Z" style="fill:#407BFF"></path><g style="opacity:0.5"><path d="M170.55,298.92,165.76,280a1.4,1.4,0,0,1,1-1.7h0a1.4,1.4,0,0,1,1.69,1l4.79,18.93a1.39,1.39,0,0,1-1,1.69h0A1.39,1.39,0,0,1,170.55,298.92Z" style="fill:#fff"></path></g><path d="M168.46,279.31a1.37,1.37,0,0,0-.84-.93,1.35,1.35,0,0,0-.8,1.55l4.62,18.23a1.33,1.33,0,0,0,1.62,1l.11-.05a1.41,1.41,0,0,0,.08-.84Z" style="fill:#fff;opacity:0.5"></path><polygon points="139.59 303.99 152.83 336.64 139.21 337.5 110.63 306.56 125.38 298.32 139.59 303.99" style="fill:#407BFF"></polygon><polygon points="139.59 303.99 152.83 336.64 139.21 337.5 110.63 306.56 125.38 298.32 139.59 303.99" style="opacity:0.2"></polygon><path d="M155.81,305.6l-39.34,5.88V289.82h38.16a7.94,7.94,0,0,1,7.94,7.93h0A8,8,0,0,1,155.81,305.6Z" style="fill:#407BFF"></path><path d="M155.81,305.6l-39.34,5.88V289.82h38.16a7.94,7.94,0,0,1,7.94,7.93h0A8,8,0,0,1,155.81,305.6Z" style="fill:#fff;opacity:0.5"></path><path d="M141.38,306.1l-34.5,5.16v-19h33.47a7,7,0,0,1,7,7h0A7,7,0,0,1,141.38,306.1Z" style="opacity:0.2"></path><path d="M360.6,237a7.76,7.76,0,0,1-3.39-6.54l0-1.86a4.64,4.64,0,0,0-5-4.7L163,239.51A35.64,35.64,0,0,0,140.51,250l-59.1,59.84a8,8,0,0,0-1.55,9l24.64,52.67H395.37l33.12-88.14Zm.74,52.62-61.69,60.63a38.7,38.7,0,0,1-25.84,11.07l-69,2.22a38.66,38.66,0,0,1-26.11-9l-51-42.86a18.76,18.76,0,0,1-1.28-27.55l27.32-27.67a35.81,35.81,0,0,1,22.35-10.5l133.77-11.58a35.73,35.73,0,0,1,25.29,7.6l24.71,19.59A18.75,18.75,0,0,1,361.34,289.59Z" style="fill:#407BFF"></path><path d="M347.91,371.52h47.46l27.32-72.71s-15.38-.26-19.81,1.95C382.48,310.91,347.91,371.52,347.91,371.52Z" style="fill:#fff;opacity:0.4"></path><path d="M413.13,327.41H376.56a18,18,0,0,0-7.57,1.68l-72.87,33.83a66.22,66.22,0,0,1-27.9,6.16H204.71a66.31,66.31,0,0,1-33.5-9.09l-37.92-22.23a20.68,20.68,0,0,0-10.49-2.85H87a20.76,20.76,0,0,0-18,10.38l-9.91,17.17a20.73,20.73,0,0,0,0,20.75L69,400.38a20.75,20.75,0,0,0,18,10.37h44.7a20.76,20.76,0,0,0,11.79-3.67l7.25-5a38.34,38.34,0,0,1,21.76-6.78H316.58a38.32,38.32,0,0,1,19.54,5.36l12.79,7.58a18,18,0,0,0,9.17,2.51H406a18,18,0,0,0,14.13-6.86L440,378.66a18,18,0,0,0,1.45-20.13l-12.77-22.12A18,18,0,0,0,413.13,327.41Z" style="fill:#407BFF"></path><path d="M413.13,327.41H376.56a18,18,0,0,0-7.57,1.68l-72.87,33.83a66.22,66.22,0,0,1-27.9,6.16H204.71a66.31,66.31,0,0,1-33.5-9.09l-37.92-22.23a20.68,20.68,0,0,0-10.49-2.85H87a20.76,20.76,0,0,0-18,10.38l-9.91,17.17a20.73,20.73,0,0,0,0,20.75L69,400.38a20.75,20.75,0,0,0,18,10.37h44.7a20.76,20.76,0,0,0,11.79-3.67l7.25-5a38.34,38.34,0,0,1,21.76-6.78H316.58a38.32,38.32,0,0,1,19.54,5.36l12.79,7.58a18,18,0,0,0,9.17,2.51H406a18,18,0,0,0,14.13-6.86L440,378.66a18,18,0,0,0,1.45-20.13l-12.77-22.12A18,18,0,0,0,413.13,327.41Z" style="fill:#fff;opacity:0.6000000000000001"></path><path d="M320.91,393.31a40.35,40.35,0,0,0-20.56-5.64H187.66a40.36,40.36,0,0,0-22.9,7.13l-2.92,2a38.24,38.24,0,0,1,10.65-1.52H316.58a38.33,38.33,0,0,1,9.9,1.31Z" style="fill:#407BFF"></path><path d="M123,342.21H86.63a12.81,12.81,0,0,0-11.11,6.41l-10.28,17.8a12.84,12.84,0,0,0,0,12.83l10.28,17.8a12.83,12.83,0,0,0,11.11,6.41h45.26a12.85,12.85,0,0,0,7.29-2.27L169.86,380a7.5,7.5,0,0,0-.47-12.64L129.46,344A12.78,12.78,0,0,0,123,342.21Z" style="fill:#263238"></path><path d="M412.63,334.71H376.75a11.71,11.71,0,0,0-4.87,1.07l-60.49,28.09a7.51,7.51,0,0,0-.67,13.26l41.7,24.71a11.56,11.56,0,0,0,5.9,1.62h47.29a11.57,11.57,0,0,0,9.08-4.41l19.25-24.45a11.56,11.56,0,0,0,.93-12.93l-12.23-21.18A11.56,11.56,0,0,0,412.63,334.71Z" style="fill:#263238"></path><path d="M107,312.36v-4.07a3,3,0,0,0-3.87-2.93l-25,7.08a3.59,3.59,0,0,0-2.27,5l4,8.57a3.59,3.59,0,0,0,4.23,1.94l14.13-4A12,12,0,0,0,107,312.36Z" style="fill:#407BFF"></path><path d="M107,312.36v-4.07a3,3,0,0,0-3.87-2.93l-25,7.08a3.59,3.59,0,0,0-2.27,5l4,8.57a3.59,3.59,0,0,0,4.23,1.94l14.13-4A12,12,0,0,0,107,312.36Z" style="opacity:0.5"></path><path d="M88.07,318.55c0,3.26-1.16,5.9-2.6,5.9s-2.59-2.64-2.59-5.9,1.16-5.9,2.59-5.9S88.07,315.29,88.07,318.55Z" style="fill:#fff"></path><path d="M97.46,315.64c0,2.35-.84,4.26-1.88,4.26s-1.87-1.91-1.87-4.26.84-4.27,1.87-4.27S97.46,313.28,97.46,315.64Z" style="fill:#fff"></path><path d="M104.47,305.29a3,3,0,0,1,.73,2v4.07a12,12,0,0,1-8.74,11.57l-14.13,4a3.51,3.51,0,0,1-1.73,0,3.6,3.6,0,0,0,3.57,1l14.12-4A12,12,0,0,0,107,312.36v-4.07A3,3,0,0,0,104.47,305.29Z" style="fill:#fff;opacity:0.5"></path><circle cx="104.12" cy="376.26" r="31.77" transform="translate(-272.35 272.91) rotate(-59.18)" style="fill:#407BFF"></circle><circle cx="104.12" cy="376.26" r="31.77" transform="translate(-272.35 272.91) rotate(-59.18)" style="fill:#fff;opacity:0.8"></circle><circle cx="104.12" cy="376.26" r="25.42" transform="translate(-280.09 307.03) rotate(-64.32)" style="opacity:0.2"></circle><path d="M97.47,352q1.5,7.57,3,15.16a1.8,1.8,0,0,0,3.53-.7q-1.5-7.58-3-15.16a1.8,1.8,0,0,0-3.53.7Z" style="fill:#407BFF"></path><path d="M104.23,386q1.5,7.58,3,15.16a1.8,1.8,0,0,0,3.53-.7q-1.5-7.58-3-15.16c-.46-2.27-4-1.57-3.53.7Z" style="fill:#407BFF"></path><path d="M128.34,369.61l-15.16,3c-2.27.46-1.57,4,.7,3.53l15.16-3a1.8,1.8,0,0,0-.7-3.53Z" style="fill:#407BFF"></path><path d="M94.36,376.37l-15.16,3a1.8,1.8,0,0,0,.7,3.53l15.16-3a1.8,1.8,0,0,0-.7-3.53Z" style="fill:#407BFF"></path><circle cx="385.05" cy="376.26" r="31.77" transform="translate(-76.32 98.82) rotate(-13.32)" style="fill:#407BFF"></circle><circle cx="385.05" cy="376.26" r="31.77" transform="translate(-76.32 98.82) rotate(-13.32)" style="fill:#fff;opacity:0.8"></circle><circle cx="385.05" cy="376.26" r="25.42" transform="translate(-2.94 749.49) rotate(-88.23)" style="opacity:0.2"></circle><path d="M378.4,352q1.5,7.57,3,15.16a1.8,1.8,0,0,0,3.53-.7q-1.51-7.58-3-15.16a1.8,1.8,0,0,0-3.52.7Z" style="fill:#407BFF"></path><path d="M385.15,386q1.52,7.58,3,15.16a1.8,1.8,0,0,0,3.53-.7q-1.51-7.58-3-15.16a1.8,1.8,0,0,0-3.53.7Z" style="fill:#407BFF"></path><path d="M409.27,369.61l-15.16,3a1.8,1.8,0,0,0,.7,3.53l15.16-3a1.8,1.8,0,0,0-.7-3.53Z" style="fill:#407BFF"></path><path d="M375.29,376.37l-15.17,3a1.8,1.8,0,0,0,.71,3.53l15.16-3a1.8,1.8,0,0,0-.7-3.53Z" style="fill:#407BFF"></path><path d="M428.8,293.59H400.1a7.3,7.3,0,0,1-7.31-7.3h0A7.31,7.31,0,0,1,400.1,279h28.7a7.31,7.31,0,0,1,7.31,7.31h0A7.3,7.3,0,0,1,428.8,293.59Z" style="fill:#263238"></path><path d="M433.9,289.63H406.22a3.35,3.35,0,0,1-3.34-3.34h0a3.35,3.35,0,0,1,3.34-3.35H433.9a3.34,3.34,0,0,1,3.34,3.35h0A3.34,3.34,0,0,1,433.9,289.63Z" style="fill:#407BFF"></path><path d="M437.22,286.07a3.34,3.34,0,0,0-.64-1.77H406.77a.89.89,0,0,0,0,1.77Z" style="fill:#fff;opacity:0.8"></path><path d="M374.17,275.5a23.88,23.88,0,0,0-9.62-17.7l-22.71-17.14a46,46,0,0,0-31.53-9L175.44,242.76a45.61,45.61,0,0,0-27.87,12.45l-25.81,24.88a23.46,23.46,0,0,0,1.74,35.59l49.85,39.84a49.23,49.23,0,0,0,30.76,10.66c.52,0,1,0,1.55,0l68-2.09a49,49,0,0,0,32-13l60.91-57A23.65,23.65,0,0,0,374.17,275.5Zm-15.76,14.57-59.78,58.74a38.62,38.62,0,0,1-25.84,11.06L206,362a38.66,38.66,0,0,1-26.11-9l-49.32-41.42A18.76,18.76,0,0,1,129.26,284l26.21-26.55A35.81,35.81,0,0,1,177.82,247l130.24-11.27a35.73,35.73,0,0,1,25.29,7.6L356.91,262A18.77,18.77,0,0,1,358.41,290.07Z" style="fill:#407BFF"></path><path d="M374.17,275.5a23.88,23.88,0,0,0-9.62-17.7l-22.71-17.14a46,46,0,0,0-31.53-9L175.44,242.76a45.61,45.61,0,0,0-27.87,12.45l-25.81,24.88a23.46,23.46,0,0,0,1.74,35.59l49.85,39.84a49.23,49.23,0,0,0,30.76,10.66c.52,0,1,0,1.55,0l68-2.09a49,49,0,0,0,32-13l60.91-57A23.65,23.65,0,0,0,374.17,275.5Zm-15.76,14.57-59.78,58.74a38.62,38.62,0,0,1-25.84,11.06L206,362a38.66,38.66,0,0,1-26.11-9l-49.32-41.42A18.76,18.76,0,0,1,129.26,284l26.21-26.55A35.81,35.81,0,0,1,177.82,247l130.24-11.27a35.73,35.73,0,0,1,25.29,7.6L356.91,262A18.77,18.77,0,0,1,358.41,290.07Z" style="fill:#fff;opacity:0.6000000000000001"></path><path d="M358.41,290.07l-59.78,58.74a38.62,38.62,0,0,1-25.84,11.06L206,362a38.66,38.66,0,0,1-26.11-9l-49.32-41.42a18.77,18.77,0,0,1-6.67-15.34l-9.46.81q0,.6,0,1.2a23.89,23.89,0,0,0,9.06,17.43l49.85,39.84a49.23,49.23,0,0,0,30.76,10.66c.52,0,1,0,1.55,0l68-2.09a49,49,0,0,0,32-13l60.91-57a23.65,23.65,0,0,0,7.58-18.58c0-.25,0-.5-.06-.75l-10.12.87A18.7,18.7,0,0,1,358.41,290.07Z" style="fill:#407BFF"></path><path d="M358.41,290.07l-59.78,58.74a38.62,38.62,0,0,1-25.84,11.06L206,362a38.66,38.66,0,0,1-26.11-9l-49.32-41.42a18.77,18.77,0,0,1-6.67-15.34l-9.46.81q0,.6,0,1.2a23.89,23.89,0,0,0,9.06,17.43l49.85,39.84a49.23,49.23,0,0,0,30.76,10.66c.52,0,1,0,1.55,0l68-2.09a49,49,0,0,0,32-13l60.91-57a23.65,23.65,0,0,0,7.58-18.58c0-.25,0-.5-.06-.75l-10.12.87A18.7,18.7,0,0,1,358.41,290.07Z" style="fill:#fff;opacity:0.30000000000000004"></path><path d="M408.58,311.39l-11.4,2.42a.84.84,0,0,1-1.07-.84h0a1.39,1.39,0,0,1,1.07-1.29l11.4-2.42a.84.84,0,0,1,1.07.84h0A1.4,1.4,0,0,1,408.58,311.39Z" style="fill:#407BFF"></path><path d="M408.58,315.47l-11.4,2.43a.84.84,0,0,1-1.07-.84h0a1.38,1.38,0,0,1,1.07-1.29l11.4-2.43a.84.84,0,0,1,1.07.84h0A1.38,1.38,0,0,1,408.58,315.47Z" style="fill:#407BFF"></path><path d="M408.58,319.56,397.18,322a.84.84,0,0,1-1.07-.83h0a1.4,1.4,0,0,1,1.07-1.3l11.4-2.42a.84.84,0,0,1,1.07.84h0A1.38,1.38,0,0,1,408.58,319.56Z" style="fill:#407BFF"></path><path d="M377,317H366.25a3.55,3.55,0,0,1-2.73-5.83l5.85-7a3.55,3.55,0,0,1,2.73-1.28h10.76a3.56,3.56,0,0,1,2.74,5.84l-5.85,7A3.54,3.54,0,0,1,377,317Z" style="fill:#fff;opacity:0.4"></path><path d="M378.43,318.21H365.85a4.16,4.16,0,0,1-3.19-6.82l6.83-8.2a4.16,4.16,0,0,1,3.2-1.5h12.57a4.16,4.16,0,0,1,3.2,6.82l-6.84,8.2A4.15,4.15,0,0,1,378.43,318.21Z" style="fill:#fff;opacity:0.4"></path><polygon points="372.62 316.15 375.29 310.49 370.49 310.85 376.63 304.02 374.42 308.75 379.22 308.39 372.62 316.15" style="fill:#407BFF"></polygon><rect x="181.17" y="374.68" width="119.7" height="2.93" rx="1.46" style="fill:#263238;opacity:0.4"></rect></g></svg>
