<svg id="visual" viewBox="0 0 900 600" width="900" height="600" xmlns="http://www.w3.org/2000/svg" xmlns:xlink="http://www.w3.org/1999/xlink" version="1.1"><rect x="0" y="0" width="900" height="600" fill="#13121a"></rect><defs><linearGradient id="grad1_0" x1="33.3%" y1="0%" x2="100%" y2="100%"><stop offset="20%" stop-color="#130f7f" stop-opacity="1"></stop><stop offset="80%" stop-color="#130f7f" stop-opacity="1"></stop></linearGradient></defs><defs><linearGradient id="grad1_1" x1="33.3%" y1="0%" x2="100%" y2="100%"><stop offset="20%" stop-color="#130f7f" stop-opacity="1"></stop><stop offset="80%" stop-color="#101466" stop-opacity="1"></stop></linearGradient></defs><defs><linearGradient id="grad1_2" x1="33.3%" y1="0%" x2="100%" y2="100%"><stop offset="20%" stop-color="#13164c" stop-opacity="1"></stop><stop offset="80%" stop-color="#101466" stop-opacity="1"></stop></linearGradient></defs><defs><linearGradient id="grad1_3" x1="33.3%" y1="0%" x2="100%" y2="100%"><stop offset="20%" stop-color="#13164c" stop-opacity="1"></stop><stop offset="80%" stop-color="#141533" stop-opacity="1"></stop></linearGradient></defs><defs><linearGradient id="grad1_4" x1="33.3%" y1="0%" x2="100%" y2="100%"><stop offset="20%" stop-color="#13121a" stop-opacity="1"></stop><stop offset="80%" stop-color="#141533" stop-opacity="1"></stop></linearGradient></defs><defs><linearGradient id="grad2_0" x1="0%" y1="0%" x2="66.7%" y2="100%"><stop offset="20%" stop-color="#130f7f" stop-opacity="1"></stop><stop offset="80%" stop-color="#130f7f" stop-opacity="1"></stop></linearGradient></defs><defs><linearGradient id="grad2_1" x1="0%" y1="0%" x2="66.7%" y2="100%"><stop offset="20%" stop-color="#101466" stop-opacity="1"></stop><stop offset="80%" stop-color="#130f7f" stop-opacity="1"></stop></linearGradient></defs><defs><linearGradient id="grad2_2" x1="0%" y1="0%" x2="66.7%" y2="100%"><stop offset="20%" stop-color="#101466" stop-opacity="1"></stop><stop offset="80%" stop-color="#13164c" stop-opacity="1"></stop></linearGradient></defs><defs><linearGradient id="grad2_3" x1="0%" y1="0%" x2="66.7%" y2="100%"><stop offset="20%" stop-color="#141533" stop-opacity="1"></stop><stop offset="80%" stop-color="#13164c" stop-opacity="1"></stop></linearGradient></defs><defs><linearGradient id="grad2_4" x1="0%" y1="0%" x2="66.7%" y2="100%"><stop offset="20%" stop-color="#141533" stop-opacity="1"></stop><stop offset="80%" stop-color="#13121a" stop-opacity="1"></stop></linearGradient></defs><g transform="translate(900, 0)"><path d="M0 486.7C-51 454.1 -101.9 421.5 -167.6 404.7C-233.3 387.8 -313.7 386.7 -344.2 344.2C-374.6 301.7 -355 217.7 -370.5 153.5C-385.9 89.2 -436.3 44.6 -486.7 0L0 0Z" fill="#141426"></path><path d="M0 389.4C-40.8 363.3 -81.5 337.2 -134.1 323.7C-186.7 310.2 -251 309.4 -275.3 275.3C-299.7 241.3 -284 174.2 -296.4 122.8C-308.7 71.4 -349.1 35.7 -389.4 0L0 0Z" fill="#14153f"></path><path d="M0 292C-30.6 272.5 -61.2 252.9 -100.6 242.8C-140 232.7 -188.2 232 -206.5 206.5C-224.8 181 -213 130.6 -222.3 92.1C-231.5 53.5 -261.8 26.8 -292 0L0 0Z" fill="#111559"></path><path d="M0 194.7C-20.4 181.7 -40.8 168.6 -67 161.9C-93.3 155.1 -125.5 154.7 -137.7 137.7C-149.8 120.7 -142 87.1 -148.2 61.4C-154.4 35.7 -174.5 17.8 -194.7 0L0 0Z" fill="#111272"></path><path d="M0 97.3C-10.2 90.8 -20.4 84.3 -33.5 80.9C-46.7 77.6 -62.7 77.3 -68.8 68.8C-74.9 60.3 -71 43.5 -74.1 30.7C-77.2 17.8 -87.3 8.9 -97.3 0L0 0Z" fill="#130f7f"></path></g><g transform="translate(0, 600)"><path d="M0 -486.7C63.6 -479.8 127.2 -472.9 186.3 -449.7C245.3 -426.5 299.8 -387 338.7 -338.7C377.6 -290.4 401.1 -233.2 423.1 -175.3C445.2 -117.3 466 -58.7 486.7 0L0 0Z" fill="#141426"></path><path d="M0 -389.4C50.9 -383.9 101.8 -378.3 149 -359.8C196.2 -341.2 239.8 -309.6 271 -271C302.1 -232.3 320.8 -186.6 338.5 -140.2C356.2 -93.9 372.8 -46.9 389.4 0L0 0Z" fill="#14153f"></path><path d="M0 -292C38.2 -287.9 76.3 -283.7 111.8 -269.8C147.2 -255.9 179.9 -232.2 203.2 -203.2C226.6 -174.2 240.6 -139.9 253.9 -105.2C267.1 -70.4 279.6 -35.2 292 0L0 0Z" fill="#111559"></path><path d="M0 -194.7C25.4 -191.9 50.9 -189.2 74.5 -179.9C98.1 -170.6 119.9 -154.8 135.5 -135.5C151.1 -116.2 160.4 -93.3 169.3 -70.1C178.1 -46.9 186.4 -23.5 194.7 0L0 0Z" fill="#111272"></path><path d="M0 -97.3C12.7 -96 25.4 -94.6 37.3 -89.9C49.1 -85.3 60 -77.4 67.7 -67.7C75.5 -58.1 80.2 -46.6 84.6 -35.1C89 -23.5 93.2 -11.7 97.3 0L0 0Z" fill="#130f7f"></path></g></svg>