<svg xmlns="http://www.w3.org/2000/svg" viewBox="0 0 750 500"><g id="freepik--Floor--inject-405"><rect x="86.32" y="435.82" width="200.02" height="15.74" style="fill:#e0e0e0"></rect><rect x="502.08" y="436.87" width="200.02" height="15.74" style="fill:#e0e0e0"></rect><path d="M721.4,475.82c0,.15-152.74.26-341.11.26S39.14,476,39.14,475.82s152.71-.26,341.15-.26S721.4,475.68,721.4,475.82Z" style="fill:#263238"></path><path d="M710.86,395.32c0,.14-150.38.26-335.84.26s-335.88-.12-335.88-.26,150.35-.26,335.88-.26S710.86,395.18,710.86,395.32Z" style="fill:#263238"></path></g><g id="freepik--Car--inject-405"><path d="M286.77,250.81A29.8,29.8,0,0,1,295,264c2.17,8,.93,30.76,4.2,38s18.49,34.19,18.77,40.07-1.12,8.23-4.41,13.83-10.34,14.3-15.73,14.4-6.95-5.11-6.95-5.11L300.12,347,288,316.71l-8.38-33.34-3.78-16.43Z" style="fill:#263238"></path><path d="M380.58,363.1s3-.09,2.05-4.91-4.81-5.92-10.6-7.57S333.49,349,325.09,352s-31.93,17.11-31.93,19.82a4.61,4.61,0,0,0,1.78,3.86l54.93-10.6Z" style="fill:#263238"></path><path d="M308.88,342.89s3.18,5.19.4,9.79-10.81,18.1-15.14,16.5-6.15-4.15-5.76-4.69,3.22-11.5,1.89-21.81-11.67-49.64-14-58.75-3.61-26.64-.05-33,10.59-.14,10.59-.14-5,17.95-4,26.41S308.88,342.89,308.88,342.89Z" style="fill:#e0e0e0"></path><path d="M308.88,342.89s-.08-.14-.21-.43l-.58-1.28c-.51-1.14-1.25-2.81-2.2-5-1.91-4.34-4.66-10.67-8-18.66s-7.43-17.6-11.6-28.64c-.52-1.38-1-2.78-1.53-4.22q-.37-1.06-.75-2.16l-.69-2.22a19.34,19.34,0,0,1-.58-2.3,12.7,12.7,0,0,1-.29-2.39,41.8,41.8,0,0,1,.18-4.86,127.47,127.47,0,0,1,3.94-20l.08.26a13.34,13.34,0,0,0-3.58-2.14,4.92,4.92,0,0,0-6.89,2.79,17.49,17.49,0,0,0-1.27,4.22,52.19,52.19,0,0,0-.65,9.06,91.16,91.16,0,0,0,.57,9.29q.38,3.43,1,6.77c.44,2.22,1.06,4.4,1.62,6.58,1.12,4.34,2.22,8.63,3.31,12.84,2.15,8.43,4.19,16.57,6,24.35.91,3.89,1.79,7.69,2.54,11.4a57.69,57.69,0,0,1,1.49,10.94,59.42,59.42,0,0,1-.66,10.29c-.24,1.63-.54,3.23-.89,4.77a17.61,17.61,0,0,1-.66,2.3c-.19.25,0,.57.2.88a4.66,4.66,0,0,0,.7.84,12.45,12.45,0,0,0,3.62,2.39,4.25,4.25,0,0,0,1.94.56,4.38,4.38,0,0,0,1.85-.68,15.89,15.89,0,0,0,3-2.56c.87-.93,1.65-1.89,2.39-2.83a114.58,114.58,0,0,0,6.81-10.23,8,8,0,0,0,1.26-4.21,10.38,10.38,0,0,0-.44-3.22,13.45,13.45,0,0,0-.71-1.89c-.19-.41-.3-.62-.3-.62a9.54,9.54,0,0,1,1.11,2.48,10.69,10.69,0,0,1,.5,3.26,8.23,8.23,0,0,1-1.24,4.3,110.69,110.69,0,0,1-6.76,10.3c-.73,1-1.52,1.93-2.4,2.88a15.66,15.66,0,0,1-3,2.62,4.69,4.69,0,0,1-2,.74,3.5,3.5,0,0,1-.56,0,4.41,4.41,0,0,1-.55-.15c-.33-.13-.67-.26-1-.41a13,13,0,0,1-3.73-2.45,6,6,0,0,1-.76-.9,2.59,2.59,0,0,1-.28-.55,1,1,0,0,1-.05-.36.49.49,0,0,1,.06-.22l.06-.12a19.17,19.17,0,0,0,.61-2.21c.35-1.54.64-3.13.88-4.75a60.76,60.76,0,0,0,.62-10.22,58,58,0,0,0-1.5-10.85c-.77-3.71-1.65-7.5-2.57-11.39-1.84-7.77-3.88-15.91-6-24.33-1.09-4.21-2.2-8.5-3.33-12.84-.55-2.18-1.18-4.36-1.62-6.61s-.8-4.51-1-6.81a89.55,89.55,0,0,1-.58-9.35,51.68,51.68,0,0,1,.67-9.16,17.39,17.39,0,0,1,1.31-4.34,5.4,5.4,0,0,1,7.53-3,13.78,13.78,0,0,1,3.73,2.23l.12.1-.05.16a126.92,126.92,0,0,0-3.95,19.93c-1.16,6.57,1.71,12.43,3.6,17.95,4.13,11,8.17,20.66,11.48,28.67l7.9,18.72c.93,2.17,1.64,3.85,2.13,5q.34.84.54,1.29C308.83,342.73,308.88,342.89,308.88,342.89Z" style="fill:#263238"></path><path d="M363.07,390.68s17.41-21.78,18.07-28.08l-23.26-3.1s-26.17.25-31.83,1.91c-1,.28-31.49,12.56-31.49,12.56l4.19,15.68Z" style="fill:#e0e0e0"></path><path d="M363.07,390.68h-1.2l-3.52,0-13.27-.15-46.34-.64h-.18l-.05-.18c-1.34-5-2.75-10.26-4.2-15.67l-.06-.22.21-.08,19.66-7.86,11-4.39a6,6,0,0,1,1.39-.46,12.19,12.19,0,0,1,1.44-.28c1-.17,1.92-.26,2.87-.37,1.91-.19,3.8-.33,5.67-.44,7.48-.44,14.63-.59,21.35-.68h0l23.26,3.13.2,0,0,.19a14,14,0,0,1-1.26,3.62c-.53,1.12-1.13,2.17-1.71,3.19-1.19,2-2.39,3.86-3.55,5.57-2.31,3.41-4.42,6.27-6.16,8.59s-3.15,4.09-4.1,5.29l-1.09,1.35c-.25.3-.39.45-.39.45s.11-.17.34-.48l1-1.39,4-5.35c1.72-2.34,3.8-5.21,6.09-8.63,1.14-1.71,2.33-3.57,3.5-5.58.57-1,1.16-2.05,1.68-3.16a14.3,14.3,0,0,0,1.21-3.51l.17.21-23.27-3.06h0c-6.71.1-13.87.27-21.33.72-1.87.11-3.75.25-5.65.44-.94.11-1.89.21-2.84.37a11.16,11.16,0,0,0-1.4.27,6.28,6.28,0,0,0-1.37.45l-11,4.4-19.64,7.83.15-.3L299,389.59l-.23-.18,46.24.84,13.29.28,3.55.09.92,0Z" style="fill:#263238"></path><circle cx="621.57" cy="402.77" r="60.57" transform="translate(89.83 918.36) rotate(-77.06)" style="fill:#263238"></circle><circle cx="179.04" cy="392.23" r="71.11" transform="translate(-236.28 508.05) rotate(-81.05)" style="fill:#263238"></circle><polygon points="567.07 425.14 251.87 425.14 261.59 400.85 564.83 401.4 567.07 425.14" style="fill:#263238"></polygon><path d="M513.11,253.84c-45.42-22.8-59.64-31.75-175.61-40.77-135.42-10.53-235.95,48.78-235.95,48.78l12.21,48.06,129.67-26.62s-11.67-28.14-6.88-42.1,16.32-16.31,28.77-17.51c23.84-2.3,77.53,2.29,77.53,2.29S421,232,444.77,238.89s61.07,26.68,78.16,37.52,20.63,12.3,22.93,19.18,2.5,10,2.5,10l92.75,18.34s-15.23-10.1-42.31-21.05C573.42,292.62,522.4,258.5,513.11,253.84Z" style="fill:#263238"></path><path d="M662.58,337.91c-14-12.84-29-18.33-41-22.58s-73.19-9.74-73.19-9.74.24,41.37-1.36,60.3c0,0-.15,14.21-2.8,18.5s-3.24,7.84-10,7.84S303.67,389.61,300.7,389s-12-3.3-15.37-10.08c-4.62-9.21-41.9-95.58-41.9-95.58s-7.07-19.48-8-35.77c0,0-31.79-.73-44.59,2.12S147,272.15,137.55,281.39s-31,30.8-39.57,33.17-16.58,4-17.53,6.16-1,37.44,0,44.31,6,37.2,21.1,54.73,26.05,23.93,26.05,23.93l107.85-2.37S254.36,424.5,265,418.58s16.11-10.9,44.3-10.66,114.92-.48,128.19-.24,83.88-.48,96.91,1.89,24.64,10.19,31,15.17l1.6.4s-7.77-24.29,3.86-48.89c9-18.95,30.1-34.44,61-30.69,0,0,33.06.85,46.28,35.74a65,65,0,0,1,3.87,18C689.59,377.19,678.62,352.68,662.58,337.91Z" style="fill:#455a64"></path><path d="M103.63,270.19s120.42,10.7,120.87,10.7-1.87-8.83-8.67-11.25-110.1-10.15-110.1-10.15l-4.18,2.35Z" style="fill:#263238"></path><path d="M103,268s105.25,8.76,105.64,8.76-1.58-5.4-7.5-7.51-96.92-8.91-96.92-8.91l-2.71,1.53Z" style="fill:#FF725E"></path><path d="M243.71,391.39s0-.19,0-.57,0-.94.08-1.65.11-1.63.12-2.7,0-2.29,0-3.67-.17-2.92-.26-4.6-.39-3.49-.67-5.43a86,86,0,0,0-3.2-12.93,78.75,78.75,0,0,0-17.94-29.37A72.29,72.29,0,0,0,205.67,318a78.51,78.51,0,0,0-42.2-10.21,72.44,72.44,0,0,0-20.07,3.7A78.78,78.78,0,0,0,114,329.42a84.47,84.47,0,0,0-8.76,10q-1.71,2.4-3.08,4.52c-.85,1.45-1.68,2.75-2.34,4l-1.69,3.26c-.48,1-.81,1.79-1.12,2.45s-.52,1.15-.69,1.51a5.46,5.46,0,0,1-.25.51s.06-.18.2-.53.37-.87.64-1.53.62-1.51,1.08-2.48l1.66-3.29c.64-1.23,1.46-2.54,2.3-4s1.92-3,3-4.56a85.32,85.32,0,0,1,8.74-10.14A78.59,78.59,0,0,1,143.25,311a72.15,72.15,0,0,1,20.2-3.76,78.58,78.58,0,0,1,42.47,10.28,71.94,71.94,0,0,1,16.25,12.57,78.79,78.79,0,0,1,18,29.59,86.11,86.11,0,0,1,3.14,13c.26,1.95.48,3.77.63,5.45s.21,3.23.22,4.61,0,2.62,0,3.69-.13,2-.18,2.69-.1,1.26-.13,1.66S243.71,391.39,243.71,391.39Z" style="fill:#263238"></path><path d="M535.8,392.15l-.59,0-1.74,0-6.69,0H502.17c-20.78-.08-49.48-.38-81.18-.89l-81.18-1.44-24.6-.46-6.69-.15-1.74-.05-.59,0s.2,0,.59,0h1.74l6.69,0,24.61.3L421,390.82c31.7.51,60.4.87,81.17,1l24.61.18,6.69.06,1.74,0Z" style="fill:#263238"></path><path d="M482,262.91a27.87,27.87,0,0,0-7.71,12.4c-2,7.5-.88,28.86-3.94,35.67s-17.35,32.09-17.61,37.6,1,7.72,4.13,13,9.7,13.42,14.77,13.51,6.52-4.79,6.52-4.79l-8.68-17.16,11.37-28.38,7.87-31.28L492.26,278Z" style="fill:#455a64"></path><path d="M394.74,369.83s-2.81-1.28-1.91-5.8,4.52-5.55,9.95-7.1,36.17-1.55,44,1.29,30,16.06,30,18.6a4.33,4.33,0,0,1-1.67,3.62l-51.54-9.95Z" style="fill:#455a64"></path><path d="M461.24,349.3s-3,4.87-.37,9.19,10.15,17,14.21,15.48,5.77-3.9,5.4-4.4-3-10.79-1.77-20.47,10.94-46.57,13.17-55.12,3.38-25,.05-30.94-9.94-.13-9.94-.13,4.74,16.84,3.76,24.78S461.24,349.3,461.24,349.3Z" style="fill:#ebebeb"></path><path d="M461.24,349.3l.16-.42.51-1.21,2-4.69c1.74-4.12,4.25-10.09,7.41-17.57s6.9-16.55,10.77-26.9c1.77-5.18,4.46-10.68,3.38-16.84A118.51,118.51,0,0,0,481.75,263l-.05-.16.12-.1a12.68,12.68,0,0,1,3.5-2.1,5.68,5.68,0,0,1,4.16-.18,5.62,5.62,0,0,1,2.93,3,16.15,16.15,0,0,1,1.23,4.08,48.13,48.13,0,0,1,.63,8.6,83.89,83.89,0,0,1-.54,8.77c-.23,2.16-.57,4.29-1,6.39s-1,4.16-1.52,6.2q-1.59,6.12-3.12,12.05c-2,7.9-3.95,15.54-5.68,22.83-.86,3.65-1.68,7.21-2.4,10.68a55,55,0,0,0-1.42,10.18,57.6,57.6,0,0,0,.59,9.59c.22,1.53.49,3,.82,4.45a17,17,0,0,0,.58,2.08l0,.11c0,.07.07.15.06.21a.9.9,0,0,1,0,.34,2.13,2.13,0,0,1-.27.52,5.34,5.34,0,0,1-.71.85,11.84,11.84,0,0,1-3.51,2.3c-.3.14-.62.26-.93.38a4.44,4.44,0,0,1-.52.15,3.11,3.11,0,0,1-.53,0,4.49,4.49,0,0,1-1.88-.69,15.07,15.07,0,0,1-2.83-2.47c-.82-.88-1.56-1.8-2.24-2.69a106.21,106.21,0,0,1-6.35-9.67,7.77,7.77,0,0,1-1.16-4,9.79,9.79,0,0,1,.47-3.06,9.33,9.33,0,0,1,1-2.33s-.1.2-.28.59a12.8,12.8,0,0,0-.66,1.77,9.83,9.83,0,0,0-.41,3,7.53,7.53,0,0,0,1.18,3.94,106,106,0,0,0,6.4,9.6,33.61,33.61,0,0,0,2.24,2.66,14.3,14.3,0,0,0,2.78,2.39,4,4,0,0,0,1.73.64,3.84,3.84,0,0,0,1.81-.52,11.62,11.62,0,0,0,3.39-2.24,4.94,4.94,0,0,0,.66-.79c.17-.29.36-.59.18-.81a15.88,15.88,0,0,1-.61-2.16c-.34-1.45-.62-2.95-.85-4.48a58.33,58.33,0,0,1-.62-9.66,55.3,55.3,0,0,1,1.4-10.26c.71-3.48,1.53-7.05,2.39-10.7,1.72-7.3,3.62-14.94,5.64-22.85q1.53-5.93,3.11-12.05c.53-2,1.11-4.08,1.52-6.17s.74-4.21,1-6.35a82.78,82.78,0,0,0,.54-8.72,48.76,48.76,0,0,0-.61-8.5A16.42,16.42,0,0,0,492,263.7a4.58,4.58,0,0,0-6.45-2.6,12,12,0,0,0-3.35,2l.08-.26a119.4,119.4,0,0,1,3.7,18.79,38.78,38.78,0,0,1,.17,4.56,12.93,12.93,0,0,1-.27,2.24,19,19,0,0,1-.55,2.16c-.22.7-.43,1.39-.64,2.08s-.48,1.36-.71,2c-.46,1.35-1,2.67-1.44,4C478.58,309,474.75,318,471.6,325.53S465.84,339,464.06,343c-.9,2-1.59,3.59-2.07,4.66l-.55,1.2A3.76,3.76,0,0,1,461.24,349.3Z" style="fill:#263238"></path><path d="M408.5,390.91s-14.44-16.59-15.06-22.51l13.69-3.58a41,41,0,0,1,13.69-1.21,211.15,211.15,0,0,1,22.31,2.71C452.76,368.32,476,379,476,379l-3,12.86Z" style="fill:#ebebeb"></path><path d="M408.5,390.91a1.14,1.14,0,0,1,.32,0h4.5l13.38.13,46.27.57-.24.19,3-12.86.15.3c-5.18-2.35-10.6-4.71-16.2-7-3.09-1.25-6.17-2.44-9.23-3.5a57.79,57.79,0,0,0-9.2-2.53c-6.17-1.08-12.21-1.66-17.94-2.18-1.44-.11-2.85-.25-4.24-.31s-2.77,0-4.13.05a41.09,41.09,0,0,0-7.76,1.24l-13.7,3.55.13-.2a11.86,11.86,0,0,0,.37,1.48c.2.47.34.95.56,1.4l.65,1.32c.24.43.48.84.71,1.26.95,1.63,1.95,3.12,2.9,4.5,1.91,2.74,3.67,5,5.12,6.88s2.61,3.26,3.39,4.22l.89,1.09a2.35,2.35,0,0,1,.29.38l-.33-.35c-.23-.25-.53-.61-.93-1.06-.81-.93-2-2.33-3.47-4.16s-3.26-4.1-5.2-6.84c-1-1.37-2-2.85-2.94-4.5q-.36-.62-.72-1.26l-.67-1.34c-.23-.45-.38-.95-.58-1.43a11,11,0,0,1-.4-1.55l0-.15.18,0,13.68-3.62a41,41,0,0,1,7.85-1.27c1.36-.09,2.75-.11,4.16-.07s2.83.19,4.27.31c5.74.5,11.78,1.07,18,2.14a57.92,57.92,0,0,1,9.28,2.55c3.08,1.07,6.16,2.26,9.25,3.51,5.61,2.27,11,4.62,16.22,7l.19.09-.05.2c-1,4.43-2.06,8.75-3,12.86l0,.19H473l-46.36-.78-13.34-.27-3.55-.09-.91,0Z" style="fill:#263238"></path><path d="M439.33,356.8s.14,0,.4,0,.66,0,1.16.08a35.93,35.93,0,0,1,4.2.73,21,21,0,0,1,2.84.83c1,.4,2,.89,3.07,1.44,2.12,1.1,4.36,2.44,6.68,3.91,4.63,2.94,8.71,5.75,11.73,7.68,1.51,1,2.75,1.72,3.61,2.23a10.3,10.3,0,0,1,1.34.81,8.61,8.61,0,0,1-1.44-.63c-.89-.46-2.17-1.16-3.7-2.1-3.08-1.85-7.2-4.62-11.82-7.55-2.31-1.46-4.54-2.81-6.62-3.93-1-.56-2-1.05-3-1.46A20.33,20.33,0,0,0,445,358c-1.73-.45-3.15-.72-4.14-.88A11.84,11.84,0,0,1,439.33,356.8Z" style="fill:#263238"></path><path d="M662.66,351.66a1.73,1.73,0,0,1-.24-.22l-.67-.69c-.3-.29-.63-.69-1.09-1.1l-1.59-1.39c-.61-.51-1.33-1-2.1-1.61s-1.69-1.11-2.64-1.71a53.44,53.44,0,0,0-6.86-3.41,76.28,76.28,0,0,0-19.27-5,61.17,61.17,0,0,0-11.75-.52A57.74,57.74,0,0,0,604,338.1a63.56,63.56,0,0,0-21.59,11.12,72.33,72.33,0,0,0-13.78,14.38,85.23,85.23,0,0,0-7,11.49c-.71,1.42-1.26,2.53-1.6,3.3-.17.36-.31.64-.41.86a2.18,2.18,0,0,1-.16.29,1.32,1.32,0,0,1,.11-.31l.36-.89c.32-.78.83-1.9,1.52-3.34a79.21,79.21,0,0,1,6.92-11.61,71.05,71.05,0,0,1,13.77-14.55,63.69,63.69,0,0,1,21.74-11.24,58.21,58.21,0,0,1,12.55-2.15,62,62,0,0,1,11.84.55,75.63,75.63,0,0,1,19.35,5.19,52.83,52.83,0,0,1,6.88,3.5c.94.62,1.84,1.19,2.62,1.76s1.49,1.13,2.09,1.65l1.57,1.44c.45.42.77.84,1.06,1.14l.63.72A2,2,0,0,1,662.66,351.66Z" style="fill:#263238"></path><polygon points="654.77 331.51 586.24 321.71 582.74 317.7 648.82 327.32 654.77 331.51" style="fill:#FF725E"></polygon><path d="M582.63,434.53s-.06-.07-.16-.22l-.43-.69c-.35-.62-1-1.48-1.56-2.7a50.22,50.22,0,0,1-4.18-10.67,57,57,0,0,1-1.51-7.79,58.5,58.5,0,0,1-.29-9.09,51.22,51.22,0,0,1,17.64-36.64,56.88,56.88,0,0,1,7.3-5.45,57.65,57.65,0,0,1,7-3.68,50.91,50.91,0,0,1,10.95-3.39c1.32-.29,2.38-.35,3.08-.46l.8-.09.28,0-.27.07-.8.14c-.69.15-1.74.24-3,.56a52.92,52.92,0,0,0-10.84,3.53,54.42,54.42,0,0,0-14.15,9.15A51.21,51.21,0,0,0,575,403.39a59.24,59.24,0,0,0,.24,9,56.88,56.88,0,0,0,1.44,7.74,53,53,0,0,0,4,10.67c.56,1.22,1.15,2.1,1.47,2.73l.38.72A.92.92,0,0,1,582.63,434.53Z" style="fill:#455a64"></path><path d="M654.52,440.88a3.73,3.73,0,0,1,.51-.51c.33-.34.87-.77,1.5-1.42a45.25,45.25,0,0,0,10.35-15.51,42.48,42.48,0,0,0,1.69-26.93,44.82,44.82,0,0,0-8.34-16.68c-.53-.72-1-1.22-1.31-1.6a4.2,4.2,0,0,1-.44-.57,3.56,3.56,0,0,1,.52.5c.32.35.83.84,1.39,1.54a40.68,40.68,0,0,1,4.36,6.24,43.23,43.23,0,0,1-3,47.51,40.79,40.79,0,0,1-5.1,5.65c-.65.62-1.22,1-1.58,1.35A2.88,2.88,0,0,1,654.52,440.88Z" style="fill:#455a64"></path><path d="M387.11,391.39c-.15,0-.26-37.36-.26-83.43s.11-83.45.26-83.45.26,37.35.26,83.45S387.25,391.39,387.11,391.39Z" style="fill:#263238"></path><path d="M420.2,292.75c-.1-.11,6.27-6.28,14.23-13.78s14.48-13.5,14.58-13.4-6.27,6.27-14.23,13.78S420.3,292.85,420.2,292.75Z" style="fill:#263238"></path><path d="M410.83,315.35a4.61,4.61,0,0,1,.43-.55l1.29-1.53c1.14-1.32,2.81-3.19,4.9-5.49,4.19-4.59,10.12-10.8,16.95-17.38s13.27-12.26,18-16.27c2.37-2,4.31-3.6,5.67-4.68l1.58-1.24a3.4,3.4,0,0,1,.57-.4,4.36,4.36,0,0,1-.51.48l-1.51,1.32-5.56,4.8c-4.69,4.07-11.07,9.8-17.9,16.37S422,303.51,417.72,308l-5,5.38-1.37,1.46A3,3,0,0,1,410.83,315.35Z" style="fill:#263238"></path><path d="M365.8,270.7s-.12.15-.38.4l-1.14,1.06c-1,.92-2.48,2.21-4.33,3.78-3.7,3.13-8.94,7.31-15,11.62s-11.69,7.89-15.86,10.37c-2.08,1.24-3.79,2.22-5,2.86l-1.37.74a2.28,2.28,0,0,1-.5.23s.14-.13.44-.32l1.33-.82,4.89-3c4.11-2.56,9.73-6.2,15.75-10.49s11.28-8.42,15-11.48l4.43-3.64,1.21-1A2.54,2.54,0,0,1,365.8,270.7Z" style="fill:#263238"></path><path d="M366.68,260.05a3.74,3.74,0,0,1-.75.69c-.5.42-1.25,1-2.18,1.72-1.85,1.41-4.48,3.29-7.46,5.24s-5.77,3.6-7.81,4.73c-1,.57-1.86,1-2.44,1.31a3.35,3.35,0,0,1-.94.4,34.33,34.33,0,0,1,3.19-2c2-1.22,4.73-2.91,7.71-4.85s5.63-3.78,7.54-5.11A30.19,30.19,0,0,1,366.68,260.05Z" style="fill:#263238"></path><path d="M640.34,327.2a1.53,1.53,0,0,1-.49,0l-1.4-.09c-1.22-.09-3-.25-5.15-.46-4.34-.43-10.32-1.1-16.91-2s-12.54-1.84-16.84-2.58c-2.15-.38-3.88-.7-5.08-.93l-1.37-.29a1.79,1.79,0,0,1-.48-.13,1.59,1.59,0,0,1,.5,0l1.39.19,5.1.76c4.31.66,10.26,1.54,16.85,2.44s12.56,1.63,16.88,2.14l5.13.63,1.39.19A1.85,1.85,0,0,1,640.34,327.2Z" style="fill:#fff"></path><g style="opacity:0.30000000000000004"><path d="M238.68,356.78l1.69,6.6c6.69,22.59,2,49.62-10,68.4C242,423.63,247,411.1,248.52,397S246.37,369.31,238.68,356.78Z"></path></g><g style="opacity:0.30000000000000004"><path d="M554.84,397.92l1.4-7.24c4.16-24.33,24.93-45.71,45.85-52.27-14.37,2.81-25.82,8.91-34.58,20.13S554.86,383.21,554.84,397.92Z"></path></g><path d="M186.33,271.24c0,.15-17.83-1.23-39.8-3.08s-39.77-3.45-39.76-3.6,17.83,1.24,39.8,3.08S186.34,271.1,186.33,271.24Z" style="fill:#fff"></path><path d="M175.27,314.41H175l-.71,0c-.63,0-1.54-.16-2.72-.2a68.69,68.69,0,0,0-10,.17A67.79,67.79,0,0,0,104.2,358c-.45,1.1-.71,2-.93,2.56l-.24.67c-.06.15-.1.23-.11.22a2.29,2.29,0,0,1,0-.24c.06-.18.12-.4.2-.68.19-.59.42-1.49.84-2.6a62,62,0,0,1,4.08-9.19,66.59,66.59,0,0,1,8.5-12.26,65.36,65.36,0,0,1,30.31-19.7,66.58,66.58,0,0,1,14.65-2.8,62.52,62.52,0,0,1,10.06,0c1.19.07,2.1.23,2.72.29l.7.1A1.17,1.17,0,0,1,175.27,314.41Z" style="fill:#fff"></path><path d="M87.47,376.71a2.46,2.46,0,0,1-.21-.5l-.53-1.46c-.2-.65-.39-1.45-.63-2.38s-.42-2-.67-3.19a149.36,149.36,0,0,1-1.86-18.74,177.33,177.33,0,0,1,.15-18.83c.18-2.4.42-4.34.63-5.68l.3-1.52a1.61,1.61,0,0,1,.14-.52,3.11,3.11,0,0,1,0,.54l-.2,1.53c-.15,1.34-.33,3.28-.46,5.68-.26,4.8-.29,11.45,0,18.78a172.72,172.72,0,0,0,1.71,18.7c.22,1.18.37,2.26.58,3.19s.38,1.73.55,2.38.31,1.09.43,1.49A1.86,1.86,0,0,1,87.47,376.71Z" style="fill:#fff"></path><path d="M212,225.15a21.45,21.45,0,0,1-3.34,1l-9.28,2.58c-7.82,2.2-18.62,5.28-30.44,9s-22.38,7.58-29.87,10.73c-3.75,1.56-6.73,2.95-8.78,3.94L128,253.66c-.53.26-.82.4-.83.39a.68.68,0,0,1,.2-.14l.58-.35c.52-.3,1.29-.72,2.3-1.25,2-1.05,5-2.49,8.72-4.1,7.47-3.24,18-7.12,29.86-10.88s22.65-6.79,30.51-8.9c3.93-1.05,7.11-1.87,9.32-2.43l2.54-.63Z" style="fill:#fff"></path><path d="M559.55,402.91a2.44,2.44,0,0,1,0-.59c0-.44,0-1,0-1.69a26.39,26.39,0,0,1,.09-2.67c.08-1,.11-2.23.31-3.53.08-.65.17-1.33.26-2s.26-1.44.4-2.2c.25-1.53.68-3.12,1.1-4.81A64.53,64.53,0,0,1,571.28,365c1-1.39,2-2.74,3-3.9.5-.58,1-1.17,1.45-1.7l1.42-1.5c.88-1,1.77-1.76,2.53-2.47a25.65,25.65,0,0,1,2-1.76l1.32-1.06a2,2,0,0,1,.48-.34,2.53,2.53,0,0,1-.42.42c-.32.3-.74.67-1.25,1.13s-1.22,1.07-1.94,1.82-1.61,1.53-2.47,2.52l-1.38,1.51c-.48.53-.92,1.12-1.42,1.71-1,1.16-1.94,2.51-3,3.9a66.72,66.72,0,0,0-9.56,20.19c-.43,1.67-.87,3.25-1.14,4.76-.14.76-.31,1.48-.42,2.18s-.2,1.38-.3,2c-.22,1.29-.28,2.47-.38,3.5a26.12,26.12,0,0,0-.17,2.66c0,.68-.06,1.24-.09,1.68A2.27,2.27,0,0,1,559.55,402.91Z" style="fill:#fff"></path><path d="M596.92,344.31a17.89,17.89,0,0,1-3.64,2.24,17.1,17.1,0,0,1-3.88,1.79,18.17,18.17,0,0,1,3.64-2.25A17.31,17.31,0,0,1,596.92,344.31Z" style="fill:#fff"></path><path d="M375.66,396.87c0,.14-16.23.26-36.26.26s-36.26-.12-36.26-.26,16.24-.26,36.26-.26S375.66,396.73,375.66,396.87Z" style="fill:#fff"></path><path d="M299.14,259.23a70.09,70.09,0,0,0-6.52-11.74c-1.23-1.8-2.69-3.64-4.78-4.28-3-.91-6.07.95-8.65,2.72a3.22,3.22,0,0,0-1.47,1.63c-.2.73.43,1.66,1.14,1.45l13.69,18.79a15,15,0,0,0,4.27-.68,5,5,0,0,0,3.09-2.86C300.48,262.62,299.84,260.82,299.14,259.23Z" style="fill:#263238"></path></g><g id="freepik--Character--inject-405"><path d="M333.85,306.36c.44.27,16.44,21.14,16.88,24.19a31.63,31.63,0,0,1,.29,5.66l-8.15,5.2-10.65-7.14Z" style="fill:#e0e0e0"></path><path d="M326.3,237.31a3,3,0,0,0,2.63,1.17,7.38,7.38,0,0,0,1-.41c.36.18.39,1.36.19,1.71a6.19,6.19,0,0,1-.67.83c1.21.52,2.24.11,3.42-.46a6.06,6.06,0,0,1-3.12,5.18,2.12,2.12,0,0,1-1.94.22,2.39,2.39,0,0,1-1-1.43,26.81,26.81,0,0,1-1.48-6.37Z" style="fill:#263238"></path><path d="M302.27,250.47l2.64,27.88c.45,4.75,2.08,11.62,9.55,10.57h0c6.4-1.4,7.46-7.73,7-12.15-.2-2.1-.36-3.85-.37-4.07,0,0,7-1.34,6.88-8.41-.07-3.42-.8-10.45-1.53-16.8a13.18,13.18,0,0,0-13.54-11.66l-.69,0C304.91,236.54,301.39,243.15,302.27,250.47Z" style="fill:#ffbf9d"></path><path d="M321.13,272.69a17.09,17.09,0,0,1-9.29-2.41s2.42,5.09,9.45,4.21Z" style="fill:#ff9a6c"></path><path d="M314.53,251.25c-.12.16-1-.41-2.18-.31s-2,.76-2.13.62,0-.33.4-.64a2.93,2.93,0,0,1,1.69-.68,2.8,2.8,0,0,1,1.76.43C314.45,250.92,314.59,251.18,314.53,251.25Z" style="fill:#263238"></path><path d="M315.12,254.66a1,1,0,0,1-.89,1,.91.91,0,0,1-1-.83.94.94,0,0,1,.89-1A.91.91,0,0,1,315.12,254.66Z" style="fill:#263238"></path><path d="M318.35,259.1a7.46,7.46,0,0,1,1.76-.38c.27,0,.53-.1.57-.29a1.41,1.41,0,0,0-.21-.81c-.28-.67-.58-1.36-.89-2.09a36.53,36.53,0,0,1-2-5.46,36.11,36.11,0,0,1,2.46,5.28c.3.74.59,1.43.86,2.1a1.58,1.58,0,0,1,.18,1.09.7.7,0,0,1-.44.42,1.78,1.78,0,0,1-.47.08A6.88,6.88,0,0,1,318.35,259.1Z" style="fill:#263238"></path><path d="M314.42,247.52c-.11.26-1.06.07-2.19.14s-2.06.32-2.2.07.12-.36.5-.6a3.76,3.76,0,0,1,1.66-.48,3.52,3.52,0,0,1,1.68.32C314.27,247.17,314.47,247.4,314.42,247.52Z" style="fill:#263238"></path><path d="M325.14,247.58c-.1.23-1,.09-2.16.18s-2,.32-2.16.11.1-.31.47-.52a4,4,0,0,1,1.61-.45,4.08,4.08,0,0,1,1.68.23C325,247.29,325.18,247.48,325.14,247.58Z" style="fill:#263238"></path><path d="M302.75,255.29c-.12,0-4.9-1.27-4.58,3.55s5.1,3.52,5.1,3.38S302.75,255.29,302.75,255.29Z" style="fill:#ffbf9d"></path><path d="M301.67,260.49s-.08.06-.22.14a.85.85,0,0,1-.63.05,2.09,2.09,0,0,1-1.08-1.8,2.83,2.83,0,0,1,.15-1.22,1,1,0,0,1,.59-.69.42.42,0,0,1,.52.2c.07.13.05.23.07.23s.1-.09.05-.28a.52.52,0,0,0-.21-.29.6.6,0,0,0-.48-.09,1.19,1.19,0,0,0-.83.8,3,3,0,0,0-.2,1.37,2.19,2.19,0,0,0,1.37,2,.87.87,0,0,0,.76-.18C301.67,260.6,301.69,260.49,301.67,260.49Z" style="fill:#ff9a6c"></path><path d="M295.53,248.19c.82-1.8.83-3.85,1.18-5.8s1.19-4,3-4.89l0,0a5.09,5.09,0,0,1,5.14-.07,6.61,6.61,0,0,1,4.42-5.65,16.39,16.39,0,0,1,8.76-.25c1.89.53,3.8,1.84,6.16,3.8a24.44,24.44,0,0,1,2.77,2.71l2.82,6.32L328.35,248c-.09.25-.18.49-.29.74v0l-.67,7.21c-.32-2-1.1-8.64-1.42-10.6a11.12,11.12,0,0,1-8.23-2.78c-1.2-1.08-2.21-2.49-3.73-3-2-.73-4.1.18-6,1.07l.08-.08a8.85,8.85,0,0,0-2.51,2.25,27.52,27.52,0,0,1,.06,11.71c-.12.58-.5,1.78-1,2-1,.54-1.44-.53-2.15-1a2.91,2.91,0,0,0-2-.28,43.75,43.75,0,0,1-1.85-4.84,4.59,4.59,0,0,1-2,.35c.16-.52.31-1,.46-1.56a2.3,2.3,0,0,1-.82.49.8.8,0,0,1-.86-.27C295.15,249,295.36,248.57,295.53,248.19Z" style="fill:#263238"></path><path d="M307.15,238a5.36,5.36,0,0,0-.63.72,5,5,0,0,0-.83,2.44,9.09,9.09,0,0,0,0,1.8c.06.65.19,1.33.32,2.06a19.54,19.54,0,0,1,.3,2.29,10.2,10.2,0,0,1,0,1.23,2.66,2.66,0,0,1-.37,1.23,1.07,1.07,0,0,1-1,.44,1.64,1.64,0,0,1-.94-.41,3.68,3.68,0,0,1-.87-1.71h.15a5.65,5.65,0,0,1-.69,1.56,2.13,2.13,0,0,1-1.29.89,1.29,1.29,0,0,1-.73-.05,1.14,1.14,0,0,1-.55-.43,1.21,1.21,0,0,1-.21-.6.91.91,0,0,1,.16-.57l.09.06a4.66,4.66,0,0,1-1.39,1.29,4.9,4.9,0,0,1-.45.23l-.16.06s.05,0,.15-.09a4,4,0,0,0,.43-.25,4.66,4.66,0,0,0,1.33-1.3l.08.06a.91.91,0,0,0,.07,1,1,1,0,0,0,.49.38,1.17,1.17,0,0,0,.67,0,2,2,0,0,0,1.19-.84,5.89,5.89,0,0,0,.66-1.53l.08-.23.07.24a3.62,3.62,0,0,0,.83,1.63,1.39,1.39,0,0,0,.84.36.91.91,0,0,0,.82-.37,2.37,2.37,0,0,0,.33-1.15,6.9,6.9,0,0,0,0-1.2,18.21,18.21,0,0,0-.28-2.28c-.13-.72-.25-1.41-.31-2.07a9.17,9.17,0,0,1,0-1.82,4.9,4.9,0,0,1,.89-2.47A2.8,2.8,0,0,1,307.15,238Z" style="fill:#455a64"></path><path d="M329.58,242.51l-.05.06-.16.14a2.28,2.28,0,0,1-.28.22,2.77,2.77,0,0,1-.4.28,6.46,6.46,0,0,1-2.95.86,8.08,8.08,0,0,1-4.4-1.11,13.9,13.9,0,0,1-4.08-3.8c-.6-.8-1.11-1.62-1.66-2.38a9.4,9.4,0,0,0-1.79-2,4.76,4.76,0,0,0-2.15-1,3.27,3.27,0,0,0-1.08,0,3.58,3.58,0,0,0-1,.29,4.27,4.27,0,0,0-1.37,1,4.15,4.15,0,0,0-.68,1.11,5.17,5.17,0,0,0-.25,1.09v-.07c0-.06,0-.13,0-.22a4.29,4.29,0,0,1,.18-.82,4.14,4.14,0,0,1,.67-1.15,4.2,4.2,0,0,1,1.39-1.08,3.47,3.47,0,0,1,2.11-.32,4.84,4.84,0,0,1,2.22,1,9.2,9.2,0,0,1,1.83,2c.56.76,1.06,1.58,1.66,2.37a13.87,13.87,0,0,0,4,3.77,8,8,0,0,0,4.32,1.12,6.34,6.34,0,0,0,2.91-.8A10,10,0,0,0,329.58,242.51Z" style="fill:#455a64"></path><path d="M325.29,250.54c-.13.16-1-.4-2.19-.31s-2,.76-2.13.63,0-.34.41-.65a3,3,0,0,1,3.44-.25C325.2,250.22,325.35,250.47,325.29,250.54Z" style="fill:#263238"></path><path d="M324.73,254.1a1,1,0,0,1-.89,1,.91.91,0,0,1-1-.83,1,1,0,0,1,.89-1A.91.91,0,0,1,324.73,254.1Z" style="fill:#263238"></path><path d="M318.9,263s-.26.16-.72.18a3,3,0,0,1-1.72-.54,2.92,2.92,0,0,1-1-1.46c-.13-.45-.09-.74-.05-.74s.1.26.28.65a3.07,3.07,0,0,0,2.54,1.84C318.61,263,318.89,263,318.9,263Z" style="fill:#263238"></path><path d="M365,322.44a19.89,19.89,0,0,0,3.73-1.88,9.4,9.4,0,0,0,2-2.26s2.94-.82,3.11-1.64a2.47,2.47,0,0,0-.16-1.5L375.6,314l2-.45,1.56.79s.76-.33.59-.81c0,0,.82-.9.59-1.18s-1.47-1.56-1.47-1.56l-1.5-1.31s-5.16,1.88-5.3,2.09-5.2,5.95-5.2,5.95l-2.12,1.57Z" style="fill:#ff9a6c"></path><path d="M364,313.08l7.19-5.27,5.43-2.73s5.7.12,6.43,2.15l1.23.1s.56,1.51-.76,1.7a12.84,12.84,0,0,1-2,.11l2.12,1.39a2,2,0,0,1-1.74.8c-.48,0-4.21-.91-4.21-.91l-2.4,1s-3.07,4.95-5,6.16a22.49,22.49,0,0,1-5.68,2.05Z" style="fill:#ffbf9d"></path><path d="M383.5,309a5.2,5.2,0,0,0,.51-.25.72.72,0,0,0,.3-.52,1.55,1.55,0,0,0-.2-.82l.09.06-4.44-.76-1.32-.23c-.42-.06-.88-.14-1.2-.17l0,0-.07,0-.13.07-.27.12-.5.23-.91.41a12.94,12.94,0,0,1-1.83.74,11.39,11.39,0,0,1,1.72-.94l.88-.44.49-.24.26-.13.13-.06.07,0a.31.31,0,0,1,.13,0,10.36,10.36,0,0,1,1.29.15l1.34.23c1.71.29,3.27.6,4.42.84h.06l0,.05a1.68,1.68,0,0,1,.18.95.86.86,0,0,1-.42.61,1.05,1.05,0,0,1-.43.14Q383.5,309.06,383.5,309Z" style="fill:#ff9a6c"></path><path d="M383.52,310.44a6.49,6.49,0,0,1-1.26-.6c-.76-.41-1.79-1-2.93-1.66l0,0-.12,0c-.33-.08-.65-.16-.95-.21l-.46-.06a1,1,0,0,0-.39,0,12.52,12.52,0,0,0-1.46.48,8.36,8.36,0,0,1-1.35.47,5.19,5.19,0,0,1,1.26-.68,9.11,9.11,0,0,1,1.48-.55,1.53,1.53,0,0,1,.49-.06l.48.06a9.59,9.59,0,0,1,1,.21l.13,0h0c1.14.66,2.16,1.28,2.88,1.73A6.21,6.21,0,0,1,383.52,310.44Z" style="fill:#ff9a6c"></path><path d="M428.92,357.56l8.56,15.73s18.18-4.52,20-1.77l-29.23,18.8-14.34-24Z" style="fill:#FF725E"></path><g style="opacity:0.6000000000000001"><path d="M427.46,377.46a1.43,1.43,0,0,0,0,1.9,1.38,1.38,0,0,0,1.88,0,1.5,1.5,0,0,0,0-2,1.43,1.43,0,0,0-2,.17" style="fill:#fff"></path></g><g style="opacity:0.6000000000000001"><path d="M428.3,390.32l-1.45-2.42,28.86-17.17a2.42,2.42,0,0,1,2.1.91Z" style="fill:#fff"></path></g><path d="M437.87,372.85c.08.15-.61.65-1.05,1.54s-.46,1.74-.63,1.76-.45-.95.11-2S437.83,372.7,437.87,372.85Z" style="fill:#263238"></path><path d="M441.78,372.29c.11.13-.37.75-.5,1.66s.11,1.65,0,1.73-.73-.69-.55-1.82S441.69,372.16,441.78,372.29Z" style="fill:#263238"></path><path d="M445.78,375c-.11.1-.75-.5-.85-1.53s.4-1.74.53-1.66,0,.77.06,1.61S445.92,374.89,445.78,375Z" style="fill:#263238"></path><path d="M435.53,369.48c0,.17-.78.37-1.57.91s-1.28,1.18-1.43,1.1.16-1,1.1-1.59S435.53,369.32,435.53,369.48Z" style="fill:#263238"></path><g style="opacity:0.30000000000000004"><polygon points="433.58 366.15 435.11 368.95 421.17 378.56 419.01 374.95 433.58 366.15"></polygon></g><path d="M434.45,367.68a3.36,3.36,0,0,1-1.51.88,7.62,7.62,0,0,1-1.85.44,7,7,0,0,1-1.13.06,2.08,2.08,0,0,1-.66-.09.76.76,0,0,1-.53-.74.92.92,0,0,1,.45-.71,2,2,0,0,1,.6-.25,6,6,0,0,1,1.12-.23,5.9,5.9,0,0,1,1.92.09c1.08.23,1.64.63,1.6.69s-.64-.17-1.66-.28a6.75,6.75,0,0,0-1.78,0,6.28,6.28,0,0,0-1,.24c-.37.1-.64.26-.64.45s0,.09.14.15a2,2,0,0,0,.48.06,9.24,9.24,0,0,0,1.06,0,10.12,10.12,0,0,0,1.78-.3A11.05,11.05,0,0,1,434.45,367.68Z" style="fill:#263238"></path><path d="M434.38,368c0,.06-.64-.3-1.25-1.21a5.47,5.47,0,0,1-.92-2.9,1.43,1.43,0,0,1,.51-1.32.82.82,0,0,1,.87.05,2.36,2.36,0,0,1,.48.46,3.71,3.71,0,0,1,.59,1,3.89,3.89,0,0,1,.28,1.92c-.13,1.12-.63,1.66-.67,1.62a16.23,16.23,0,0,0,.25-1.64,3.79,3.79,0,0,0-.36-1.69,3.57,3.57,0,0,0-.54-.85c-.23-.29-.5-.47-.6-.37s-.26.47-.23.8a5.71,5.71,0,0,0,.1,1,6.49,6.49,0,0,0,.6,1.67C434,367.48,434.45,367.93,434.38,368Z" style="fill:#263238"></path><path d="M400.43,363.43l-1.63,17.83s17.64,6.35,17.66,9.67l-34.75-.61,1.4-27.9Z" style="fill:#FF725E"></path><g style="opacity:0.6000000000000001"><path d="M388.16,379.16a1.43,1.43,0,0,0-1.07,1.57,1.36,1.36,0,0,0,1.54,1.07,1.49,1.49,0,0,0,1.12-1.66,1.41,1.41,0,0,0-1.72-.94" style="fill:#fff"></path></g><g style="opacity:0.6000000000000001"><path d="M381.71,390.32l.14-2.82,33.53,1.77a2.4,2.4,0,0,1,1.25,1.92Z" style="fill:#fff"></path></g><path d="M399.38,381.12c0,.16-.87.19-1.73.69s-1.35,1.19-1.5,1.11.15-1,1.21-1.62S399.42,381,399.38,381.12Z" style="fill:#263238"></path><path d="M402.93,382.82c0,.17-.72.42-1.33,1.1s-.83,1.43-1,1.42-.22-1,.56-1.82S402.94,382.66,402.93,382.82Z" style="fill:#263238"></path><path d="M404.76,387.29c-.16,0-.35-.83.14-1.73s1.3-1.23,1.36-1.09-.45.62-.84,1.36S404.93,387.28,404.76,387.29Z" style="fill:#263238"></path><path d="M399.3,377c-.08.15-.85-.13-1.81-.11s-1.72.27-1.8.12.67-.72,1.8-.71S399.39,376.88,399.3,377Z" style="fill:#263238"></path><g style="opacity:0.30000000000000004"><polygon points="399.53 373.16 399.25 376.34 382.31 376.58 382.52 372.38 399.53 373.16"></polygon></g><path d="M399.4,374.91a3.27,3.27,0,0,1-1.74-.1,7.79,7.79,0,0,1-1.79-.66,8.29,8.29,0,0,1-1-.59,2.12,2.12,0,0,1-.51-.43.75.75,0,0,1,0-.91.94.94,0,0,1,.76-.35,2.34,2.34,0,0,1,.65.13,6.71,6.71,0,0,1,1.06.43,6.29,6.29,0,0,1,1.54,1.14c.76.79,1,1.44.94,1.47s-.44-.5-1.22-1.16a7.05,7.05,0,0,0-1.5-1,6.11,6.11,0,0,0-1-.36c-.36-.12-.67-.14-.77,0s-.05.08,0,.19a1.74,1.74,0,0,0,.37.32,9.21,9.21,0,0,0,2.54,1.32A12.88,12.88,0,0,1,399.4,374.91Z" style="fill:#263238"></path><path d="M399.16,375.14a2.76,2.76,0,0,1-.36-1.7,5.57,5.57,0,0,1,.34-1.89,6.08,6.08,0,0,1,.5-1,1.45,1.45,0,0,1,1.16-.82.83.83,0,0,1,.7.53,2.38,2.38,0,0,1,.14.65,4.13,4.13,0,0,1-.06,1.17,4,4,0,0,1-.84,1.75c-.73.86-1.45,1-1.46,1s.56-.39,1.12-1.22A4,4,0,0,0,401,372a3.76,3.76,0,0,0,0-1c0-.37-.16-.68-.3-.65s-.48.25-.64.54a6,6,0,0,0-.91,2.63C399.11,374.48,399.26,375.12,399.16,375.14Z" style="fill:#263238"></path><polyline points="379.7 333.72 381.93 378.56 400.36 379.68 402.96 334.74 387.11 324.63 380.41 333.03" style="fill:#263238"></polyline><path d="M345.23,332.18l38.53-16.4c7.93-3.34,15.8-3.24,20.43,1.89,0,0,5.58,7.89,9.82,15.45,4.44,7.93,24,36.19,24,36.19L420.2,380.1l-29.1-41.59-3.46,1.72-8.32,4.62a34.59,34.59,0,0,1-4.29,2.4c-5.88,2.67-12.51,4.41-20,7.11-6.76,2.44-31.49,4.6-32.34,3.62-2.83-3.23-4.71-19.08-4.71-19.08Z" style="fill:#263238"></path><path d="M393.23,329.66a20.82,20.82,0,0,1-.54,2.54,65.12,65.12,0,0,0-1.11,6.5l0,.13-.11.06-4.07,2.16c-3.37,1.77-6.44,3.36-8.68,4.48-1.12.56-2,1-2.66,1.31a4.61,4.61,0,0,1-1,.41,4.73,4.73,0,0,1,.92-.59c.6-.36,1.48-.85,2.58-1.46,2.19-1.2,5.23-2.84,8.61-4.61l4.08-2.14-.13.19a47.21,47.21,0,0,1,1.31-6.51A12.94,12.94,0,0,1,393.23,329.66Z" style="fill:#455a64"></path><path d="M391.36,338.46c.12-.08,6.67,9.17,14.63,20.67s14.33,20.89,14.21,21-6.67-9.17-14.63-20.67S391.24,338.54,391.36,338.46Z" style="fill:#455a64"></path><path d="M303.74,269.06l-.56,3.63,20.21,10.48-1.33-5.9a29.72,29.72,0,0,0-6.24-4.21A56.53,56.53,0,0,0,303.74,269.06Z" style="fill:#f5f5f5"></path><path d="M302.55,273.82s-4.95,13-5,17.84,2.74,17.82,2.74,17.82l14,26.7,2.46,19.71c9.3,0,21.74-1.82,35.12-4.25,0,0-10.25-36.91-13.47-41.88s-14.57-27.7-14.57-27.7a14.75,14.75,0,0,0-3.76-4.94c-3.92-3.55-11.12-5.37-17.54-6.15Z" style="fill:#FF725E"></path><path d="M303.55,303a123,123,0,0,0,8,13.36c3.64,4.9,10.66,14.46,16.73,14.88s16.94-1.79,16.94-1.79l-.78-4.11-31-22.84Z" style="opacity:0.30000000000000004"></path><path d="M307.88,279.31c4-.14,9.51,2.06,12.31,8.71l3,8.28,11.09,15.92,29.11-1.91,1.8,12s-31.72,7-35.43,6.64S308,309.81,308,309.81s-9.35-11.67-8.89-21.39" style="fill:#FF725E"></path><path d="M299.13,288.42a2.18,2.18,0,0,1,0,.41c0,.3,0,.7,0,1.21s.15,1.17.24,1.94a26.28,26.28,0,0,0,.61,2.61,47.59,47.59,0,0,0,8.11,15.11v0c2.74,2.82,5.82,5.92,9.24,9.18,1.71,1.63,3.51,3.31,5.41,5,1,.83,1.94,1.67,3,2.48A20.82,20.82,0,0,0,329,328.5a2.08,2.08,0,0,0,.89.24c.33,0,.65,0,1,0,.67-.07,1.35-.12,2-.23,1.37-.19,2.75-.43,4.14-.66,2.79-.49,5.64-1.05,8.54-1.62,5.79-1.16,11.8-2.43,17.95-3.77l1.55-.34-.2.29c-.61-4.09-1.21-8.11-1.8-12l.27.22-29.1,1.88h-.13l-.07-.11L323,296.4v0c-.64-1.81-1.26-3.53-1.84-5.17a35.5,35.5,0,0,0-1.78-4.52,13.87,13.87,0,0,0-5.2-5.61,12.53,12.53,0,0,0-4.59-1.62,10.85,10.85,0,0,0-1.27-.1l-.44,0a8.29,8.29,0,0,1,1.72,0,12.28,12.28,0,0,1,4.68,1.55,14,14,0,0,1,5.36,5.64,36.85,36.85,0,0,1,1.83,4.55c.59,1.63,1.22,3.35,1.87,5.16l0,0,11.13,15.89-.2-.09,29.1-1.95h.24l0,.23q.88,5.88,1.8,12l0,.24-.24.05-1.55.34c-6.15,1.34-12.16,2.61-18,3.76-2.91.57-5.76,1.12-8.55,1.6-1.4.24-2.79.47-4.16.66-.69.11-1.38.16-2.07.23-.34,0-.7,0-1.05,0a2.74,2.74,0,0,1-1.06-.29,19.8,19.8,0,0,1-3.35-2.25c-1-.82-2-1.66-3-2.5-1.91-1.68-3.7-3.37-5.41-5-3.41-3.29-6.48-6.4-9.21-9.24h0a46.45,46.45,0,0,1-8-15.28,23.79,23.79,0,0,1-.58-2.63c-.07-.78-.18-1.43-.19-2s0-.91,0-1.21A3.24,3.24,0,0,1,299.13,288.42Z" style="fill:#263238"></path><path d="M325,284.2a5,5,0,0,1-.74-.66c-.22-.22-.5-.49-.85-.78s-.71-.65-1.16-1a30.56,30.56,0,0,0-3.22-2.32,37.38,37.38,0,0,0-4.3-2.26,45.32,45.32,0,0,0-8.42-2.66c-1.11-.24-2-.41-2.64-.52a6.08,6.08,0,0,1-1-.2,5.9,5.9,0,0,1,1,.09c.63.07,1.54.21,2.66.42a40.6,40.6,0,0,1,8.5,2.6,33.46,33.46,0,0,1,4.32,2.3,28.41,28.41,0,0,1,3.22,2.38c.44.36.81.73,1.14,1s.6.59.81.83A7,7,0,0,1,325,284.2Z" style="fill:#263238"></path><path d="M400.28,270.41a1,1,0,0,0-1,.95l-1.59,35.09-31.42,13.28a2,2,0,0,0-1.06,2.61l34.42-14.54h0l1.65-36.33A1,1,0,0,0,400.28,270.41Z" style="fill:#e0e0e0"></path><path d="M400.28,270.41a.89.89,0,0,1,.65.25,1,1,0,0,1,.34.78c0,.34,0,.73,0,1.18-.08,1.79-.18,4.39-.32,7.7-.28,6.65-.69,16.12-1.18,27.46v0l.06.12-.13.06h0l.08-.12h0v.14h-.08l-33.77,14.3-.64.27-.14.06-.07-.14a2.19,2.19,0,0,1,.61-2.5,2.32,2.32,0,0,1,.59-.34l.58-.25,1.16-.49,4.59-1.94,8.87-3.74,16.18-6.82-.08.11c.52-11,1-20.15,1.26-26.57.16-3.2.29-5.72.37-7.44,0-.43.05-.81.07-1.14a1,1,0,0,1,.42-.71.88.88,0,0,1,.64-.17,1,1,0,0,0-.61.21,1,1,0,0,0-.39.68l0,1.13c-.07,1.73-.18,4.24-.3,7.44-.28,6.42-.68,15.58-1.15,26.58v.09l-.07,0-16.17,6.85-8.87,3.75-4.59,1.94-1.16.5a4.27,4.27,0,0,0-1.09.54,1.85,1.85,0,0,0-.52,2.13l-.2-.08.64-.27,33.78-14.26h.07l-.14.13h0v-.08l.08,0h0l-.08.18v-.08c.53-11.34,1-20.81,1.3-27.45.16-3.31.29-5.92.38-7.71,0-.44.05-.83.07-1.17a1,1,0,0,0-.31-.75A1,1,0,0,0,400.28,270.41Z" style="fill:#263238"></path><path d="M399.59,307.79c0,.07-.5-.25-1-.63s-1-.7-1-.78.56.13,1.13.53S399.65,307.73,399.59,307.79Z" style="fill:#455a64"></path><path d="M394.08,308.65s.1-.18.36-.11a.45.45,0,0,1,.34.34.54.54,0,0,1-.25.54.52.52,0,0,1-.59-.06.48.48,0,0,1-.16-.45c.08-.28.3-.3.3-.26s-.09.13-.08.28a.26.26,0,0,0,.37.22.25.25,0,0,0,.12-.23.22.22,0,0,0-.12-.18C394.22,308.66,394.1,308.69,394.08,308.65Z" style="fill:#455a64"></path><path d="M396.09,307.81s.1-.18.36-.11a.43.43,0,0,1,.34.34.51.51,0,0,1-.84.47.47.47,0,0,1-.16-.45c.08-.27.3-.29.3-.25s-.09.13-.08.28a.26.26,0,0,0,.37.22.25.25,0,0,0,.12-.23.22.22,0,0,0-.12-.18C396.23,307.81,396.11,307.84,396.09,307.81Z" style="fill:#455a64"></path><path d="M368.71,350.08a5.62,5.62,0,0,1-1.27.07c-.4,0-.9,0-1.48.05s-1.23.05-1.95.12a112.76,112.76,0,0,0-11.23,1.61c-4.37.82-8.3,1.69-11.15,2.29-1.42.3-2.58.53-3.38.68a5.06,5.06,0,0,1-1.26.17,7.37,7.37,0,0,1,1.22-.37l3.34-.84c2.83-.69,6.75-1.62,11.13-2.44A85.94,85.94,0,0,1,364,350c.72,0,1.39-.06,2,0a13.77,13.77,0,0,1,1.49,0A7,7,0,0,1,368.71,350.08Z" style="fill:#455a64"></path><polygon points="323.3 337.66 337.6 335.6 337.12 340.06 321.62 342.2 323.3 337.66" style="fill:#FF725E"></polygon><path d="M323.3,337.66a9.21,9.21,0,0,1-.38,1.27c-.3.86-.68,2-1.15,3.33l-.18-.22c3.51-.55,8.81-1.32,14.72-2.14l.77-.1-.22.23c.17-1.55.34-3,.49-4.46l.29.28c-4.1.57-7.66,1-10.21,1.37l-3,.36a5.46,5.46,0,0,1-1.12.08,5.43,5.43,0,0,1,1-.22l2.95-.5c2.53-.41,6.13-1,10.3-1.59l.32-.05,0,.33c-.15,1.41-.31,2.9-.47,4.45l0,.2-.2,0-.77.11c-5.91.82-11.22,1.52-14.74,1.95l-.29,0,.11-.26c.54-1.37,1-2.48,1.33-3.35A7.28,7.28,0,0,1,323.3,337.66Z" style="fill:#263238"></path></g></svg>
